<svg width="26" height="20" viewBox="0 0 26 20" fill="none" xmlns="http://www.w3.org/2000/svg">
<path d="M17.3517 12.4543C17.3517 12.124 17.2031 11.943 16.9788 11.8138C16.7506 11.6892 16.4751 11.6722 16.0982 11.6722H14.427V14.5809H15.159V13.5218H15.9422C16.1997 13.5218 16.3614 13.5466 16.4581 13.651C16.5889 13.7841 16.5726 14.0417 16.5726 14.2196V14.5785H17.2835V14.0061C17.2835 13.7485 17.2673 13.6193 17.1698 13.4739C17.0741 13.3648 16.95 13.2815 16.8099 13.2325L16.8302 13.224C17.0292 13.1521 17.3517 12.9177 17.3517 12.4543ZM16.4077 12.8728L16.3777 12.8689C16.2802 12.9254 16.1664 12.9301 16.0177 12.9301H15.1428V12.281H16.0356C16.1664 12.281 16.2932 12.281 16.3955 12.3336C16.4465 12.3573 16.4889 12.3949 16.5174 12.4416C16.5459 12.4883 16.5592 12.542 16.5556 12.5959C16.5556 12.7204 16.5044 12.8163 16.4118 12.8736L16.4077 12.8728ZM21.9891 13.9574H20.5844V14.5785H21.998C22.7292 14.5785 23.1354 14.2915 23.1354 13.668C23.1354 13.3772 23.0639 13.2039 22.9331 13.0677C22.7682 12.9308 22.505 12.8658 22.1426 12.8542L21.7356 12.838C21.6218 12.838 21.5414 12.838 21.4569 12.8063C21.4087 12.7919 21.3668 12.7629 21.3375 12.7236C21.3083 12.6843 21.2935 12.637 21.2953 12.5889C21.2953 12.4961 21.3123 12.4195 21.3927 12.3754C21.4831 12.3274 21.586 12.3049 21.6893 12.3104H23.0176V11.6908H21.5577C20.7964 11.6908 20.521 12.1418 20.521 12.5572C20.521 13.4878 21.3594 13.4391 22.0451 13.4553C22.1548 13.4553 22.2393 13.4708 22.2856 13.5149C22.3368 13.5481 22.3742 13.624 22.3742 13.7005C22.3742 13.781 22.336 13.8576 22.2897 13.8862C22.2271 13.9419 22.1296 13.9581 21.9899 13.9581L21.9891 13.9574ZM0.00243727 0.00012207V8.03871L0.879043 6.1009H2.77443L3.01897 6.58052V6.1009H5.23201L5.71865 7.15219L6.19311 6.10941H13.2384C13.5561 6.10941 13.8429 6.16897 14.0549 6.35463V6.11637H15.9926V6.35463C16.3216 6.17748 16.7327 6.11637 17.2023 6.11637H20.0238L20.287 6.59599V6.11637H22.3644L22.6382 6.59599V6.1125H24.653V10.1869H22.6089L22.2198 9.56576V10.1699H19.668L19.3926 9.52089H18.7581L18.4664 10.1529H17.1543C16.6336 10.1529 16.2444 10.0485 15.982 9.90768V10.1529H12.8501V9.24318C12.8501 9.11863 12.8209 9.11863 12.7404 9.10161H12.6259V10.1691H6.57088V9.67793L6.34259 10.1691H5.08171L4.86154 9.67793V10.1568H2.42021L2.1448 9.51238H1.51436L1.24057 10.1568H0V20.0001H12.8822H25.7644V15.0442C25.4727 15.1843 25.1006 15.2291 24.7107 15.2291H22.8454V14.9669C22.6171 15.1363 22.2279 15.2291 21.855 15.2291H15.9349V14.3032C15.9349 14.1786 15.9129 14.1786 15.8041 14.1786H15.7237V15.2338H13.773V14.1345C13.4513 14.2761 13.0743 14.2869 12.7656 14.2761H12.5373V15.2191H10.1772L9.58904 14.5816L8.97078 15.2028H5.13696V11.1493H9.04715L9.60935 11.7705L10.2105 11.1493H12.8209C13.1255 11.1493 13.6203 11.1825 13.8405 11.3837V11.1338H16.1973C16.4175 11.1338 16.896 11.1825 17.1787 11.3666V11.1214H20.7119V11.3666C20.8899 11.1972 21.2668 11.1214 21.5837 11.1214H23.631V11.3666C23.843 11.2143 24.1347 11.1214 24.5409 11.1214H25.8148V0.000895792L12.9086 0.000508931L0.00243727 0.00012207ZM22.9193 13.0461C22.9234 13.0546 22.9234 13.0623 22.9282 13.067C22.9412 13.0739 22.9575 13.0739 22.9664 13.0863L22.9201 13.05L22.9193 13.0461ZM25.814 11.1168H25.8863V11.6892H25.814V11.1168ZM25.8513 13.1265V13.118C25.8221 13.0941 25.805 13.0708 25.7709 13.0461C25.6109 12.8891 25.3476 12.8241 24.9455 12.8163L24.5523 12.8047C24.4255 12.8047 24.3451 12.7962 24.2606 12.773C24.2124 12.7585 24.1706 12.7294 24.1414 12.6902C24.1122 12.651 24.0973 12.6037 24.0989 12.5556C24.0989 12.4628 24.1322 12.3893 24.1964 12.3452C24.2769 12.3011 24.3565 12.2934 24.4881 12.2934H25.8131L25.814 11.6892H24.4255C23.6757 11.6892 23.3848 12.1402 23.3848 12.5556C23.3848 13.4816 24.2305 13.4375 24.9122 13.4538C25.0267 13.4538 25.1071 13.4654 25.1535 13.5133C25.2046 13.5466 25.2379 13.6224 25.2379 13.699C25.2373 13.7349 25.2283 13.7702 25.2114 13.8024C25.1945 13.8345 25.1703 13.8626 25.1405 13.8846C25.0893 13.9403 24.9918 13.9566 24.8488 13.9566H23.4514V14.5809H24.8447C25.3005 14.5809 25.6401 14.4602 25.8221 14.2103H25.8513C25.9488 14.0688 26 13.9001 26 13.6711C26 13.4205 25.9488 13.2681 25.8513 13.1265ZM20.1481 12.2772V11.6769H17.7271V14.5979H20.1481V13.9937H18.4461V13.4097H20.1059V12.8055H18.4461V12.2818L20.1481 12.2772ZM14.6391 6.68418H15.3792V9.58974H14.6391V6.68418ZM14.2199 7.46626L14.2109 7.47477C14.2109 7.14755 14.0712 6.9588 13.8429 6.83038C13.6097 6.7012 13.3359 6.68882 12.9679 6.68882H11.3008V9.59747H12.032V8.52994H12.8111C13.0687 8.52994 13.2344 8.56165 13.34 8.65448C13.4724 8.79605 13.4546 9.04514 13.4546 9.21842V9.58587H14.1865V9.01729C14.1865 8.75969 14.1695 8.6305 14.0671 8.4812C13.9719 8.3737 13.8498 8.2907 13.7121 8.23984C13.8686 8.17398 14.0009 8.06522 14.0922 7.92744C14.1835 7.78966 14.2297 7.62911 14.2247 7.46626H14.2199ZM13.2937 7.87394H13.2807C13.1791 7.92964 13.0687 7.93351 12.9208 7.93351H12.0279V7.28911H12.9208C13.0516 7.28911 13.1783 7.29298 13.2758 7.34172C13.3733 7.38194 13.4407 7.47477 13.4407 7.59932C13.4407 7.72387 13.3896 7.82521 13.2937 7.87394ZM17.2494 7.28911H17.931V6.67257H17.2323C16.7327 6.67257 16.3647 6.78165 16.1282 7.01217C15.8195 7.32161 15.7383 7.72464 15.7383 8.16017C15.7383 8.68852 15.8691 9.01806 16.1282 9.26406C16.3777 9.50929 16.8261 9.58664 17.1771 9.58664H18.0244L18.2998 8.93761H19.8053L20.0888 9.58664H21.5609V7.41057L22.9412 9.58664H23.9738V6.68495H23.2288V8.71173L21.9517 6.68882H20.8468V9.3801L19.6192 6.64086H18.5314L17.5118 8.93374H17.186C16.9967 8.93374 16.7928 8.90203 16.6791 8.79218C16.5434 8.63978 16.48 8.42163 16.48 8.11143C16.48 7.81747 16.5645 7.58308 16.6872 7.4624C16.831 7.32083 16.9837 7.28911 17.2461 7.28911H17.2494ZM19.0562 7.18081L19.5559 8.33267V8.33654H18.5484L19.0562 7.18081ZM2.57945 8.93684L2.85486 9.58587H4.33591V7.31387L5.38962 9.58587H6.02006L7.07296 7.31387L7.09002 9.58587H7.83827V6.68882H6.62857L5.75684 8.65061L4.80549 6.68495H3.62504V9.4327L2.38934 6.68495H1.31044L0.0162485 9.58664H0.793738L1.07321 8.94225H2.58026L2.57945 8.93684ZM1.83445 7.18081L2.33409 8.33267L2.33003 8.33654H1.33969L1.83445 7.18081ZM12.8444 11.6722H10.5266L9.60366 12.6229L8.71081 11.6722H5.79583V14.5809H8.66856L9.59473 13.6185L10.4884 14.5778H11.8963V13.61H12.8062C13.4537 13.61 14.0712 13.4406 14.0712 12.6353L14.0671 12.6314C14.0671 11.8262 13.4204 11.6722 12.8444 11.6722ZM8.31272 13.9736H6.52295V13.3973H8.11286V12.8055H6.52295V12.2818H8.34197L9.13814 13.1273L8.30866 13.9775L8.31272 13.9736ZM11.1725 14.3163L10.0554 13.1312L11.1725 11.9917V14.3163ZM12.8525 13.0182H11.8963V12.2764H12.8525C13.115 12.2764 13.3099 12.3777 13.3099 12.6314C13.3099 12.8852 13.1499 13.0182 12.8525 13.0182ZM10.8012 7.28911V6.68495H8.37609V9.59051H10.8012V8.99022H9.09915V8.40926H10.7541V7.81283H9.09915V7.28911H10.8012Z" fill="#255FC6"/>
</svg>
