<svg width="72" height="750" viewBox="0 0 72 750" fill="none" xmlns="http://www.w3.org/2000/svg">
<mask id="mask0_1_470" style="mask-type:luminance" maskUnits="userSpaceOnUse" x="0" y="0" width="72" height="751">
<path d="M2.82516e-05 6.10352e-05L6.10352e-05 750L71.4561 750L71.4561 5.79117e-05L2.82516e-05 6.10352e-05Z" fill="white"/>
</mask>
<g mask="url(#mask0_1_470)">
<path d="M4.74955 119.014C4.97512 120.092 5.55159 121.057 6.15311 121.971C6.89249 123.099 7.66945 124.19 8.50908 125.242C9.19832 126.107 9.92517 126.959 10.8525 127.561C11.7172 128.112 12.7072 128.425 13.7098 128.651C15.1509 128.989 16.6171 129.165 18.0959 129.202C20.6022 129.265 23.472 128.651 24.7252 126.483C25.6901 124.816 25.3768 122.661 24.4996 120.944C23.3968 118.788 21.4544 117.122 19.2739 116.069C17.0933 115.016 14.6622 114.553 12.2435 114.415C9.1482 114.239 3.82221 114.578 4.77462 119.014L4.74955 119.014Z" fill="#1D236B"/>
<path d="M55.7413 39.5376C54.8641 38.886 53.7863 38.5351 52.7337 38.2343C51.4429 37.8709 50.1271 37.5701 48.7987 37.3195C47.721 37.119 46.6056 36.9561 45.5154 37.1316C44.5003 37.2819 43.5479 37.708 42.6456 38.1967C41.3423 38.8985 40.1142 39.7256 38.9863 40.678C37.0564 42.2946 35.302 44.638 35.8033 47.0942C36.1792 48.9865 37.8334 50.4026 39.6254 51.1044C41.8812 51.9942 44.4376 51.9691 46.7685 51.3175C49.0994 50.6658 51.2424 49.4126 53.1472 47.9214C55.5909 46.0165 59.3629 42.2319 55.7287 39.5376L55.7413 39.5376Z" fill="#1D236B"/>
<path d="M0.764391 236.85C1.59149 238.241 2.84466 239.319 4.1229 240.321C5.67684 241.55 7.29344 242.702 8.94763 243.78C10.3136 244.67 11.7297 245.51 13.3087 245.911C14.7749 246.274 16.3038 246.236 17.8076 246.099C19.9756 245.886 22.106 245.447 24.1862 244.808C27.7202 243.705 31.4296 241.512 32.1564 237.878C32.7078 235.096 31.2667 232.238 29.2365 230.258C26.6675 227.777 23.1837 226.361 19.6497 225.922C16.1158 225.484 12.4941 225.973 9.04788 226.925C4.6367 228.128 -2.63171 231.136 0.789459 236.863L0.764391 236.85Z" fill="#00BBB6"/>
<path d="M-7.70712 101.52C-6.15318 101.983 -4.49899 101.933 -2.8824 101.808C-0.902383 101.657 1.0651 101.419 3.02005 101.094C4.62412 100.83 6.24071 100.492 7.66933 99.7151C8.9977 99.0008 10.1005 97.9356 11.103 96.8077C12.5567 95.1911 13.835 93.4241 14.9252 91.5444C16.7799 88.3488 18.0331 84.2133 16.1157 81.0553C14.637 78.6241 11.6419 77.4962 8.80972 77.4211C5.23818 77.3208 1.71675 78.6366 -1.19062 80.7169C-4.09798 82.7972 -6.42889 85.5918 -8.32118 88.6244C-10.7523 92.4967 -14.0733 99.6148 -7.6946 101.532L-7.70712 101.52Z" fill="#FF5C2E"/>
<path d="M-18.1585 388.171C-24.4243 387.482 -31.204 384.537 -33.2968 378.597C-34.0237 376.542 -34.0863 374.173 -33.0963 372.231C-31.4421 368.972 -27.031 366.829 -27.4194 363.195C-27.7077 360.551 -30.4396 359.022 -32.7329 357.681C-35.0262 356.34 -37.4824 354.047 -36.7431 351.491C-35.6528 347.756 -29.1238 348.107 -28.0084 344.385C-27.2064 341.728 -29.8757 339.36 -32.3695 338.157C-34.8633 336.954 -37.8584 335.751 -38.5852 333.081C-39.1366 331.051 -38.0464 328.846 -36.3546 327.58C-34.6753 326.314 -32.5199 325.851 -30.4271 325.675C-23.497 325.099 -16.5544 327.367 -10.5266 330.851C-3.62164 334.836 2.3936 340.525 6.16566 347.556C10.9904 356.541 12.5694 369.06 6.8549 377.582C1.54144 385.514 -9.74967 389.086 -18.1459 388.171L-18.1585 388.171Z" fill="#1D236B"/>
<path d="M55.4655 -6.76709C45.3148 -8.5466 34.9009 -9.46137 24.6875 -8.05782C14.4741 -6.65426 4.41116 -2.81955 -3.32093 3.99772C-6.44134 6.7547 -9.22339 10.1007 -10.3763 14.0983C-12.0305 19.8378 -10.038 26.1539 -6.47894 30.9535C-2.91992 35.7532 2.04265 39.3121 7.00523 42.633C11.4039 45.578 15.9028 48.4478 20.7902 50.4905C22.8454 47.2573 24.7627 44.3624 26.5923 40.9914C27.9583 38.485 29.2992 35.8409 29.3995 32.9837C27.1312 31.718 24.5121 29.8507 22.695 27.996C20.8779 26.1287 19.5746 23.5848 19.8127 20.9908C20.0633 18.1461 22.131 15.7024 24.6374 14.3239C27.1437 12.9579 30.0386 12.5067 32.8833 12.2686C39.1742 11.7548 45.5404 12.231 51.6809 13.6596C53.31 7.38124 54.463 -0.375907 55.453 -6.77963L55.4655 -6.76709Z" fill="#F5A418"/>
<path d="M78.4361 128.15C70.2654 128.1 62.0321 127.323 54.2749 124.779C46.5178 122.235 39.2243 117.823 34.174 111.407C32.1313 108.813 30.4395 105.818 30.1137 102.535C29.6375 97.8228 32.0937 93.186 35.5525 89.9528C39.0112 86.7196 43.3723 84.6519 47.7208 82.7722C51.568 81.1054 55.4779 79.5139 59.5758 78.6116C60.7162 81.4187 61.7939 83.9501 62.7464 86.8324C63.4607 88.9754 64.1249 91.2311 63.799 93.4742C61.8441 94.1384 59.5508 95.2162 57.859 96.4067C56.1797 97.5972 54.8012 99.4017 54.6133 101.457C54.4128 103.713 55.6659 105.906 57.4329 107.334C59.1873 108.763 61.3804 109.527 63.5735 110.104C68.3982 111.395 73.4234 111.934 78.4236 111.695C78.7995 116.821 78.599 123.024 78.4612 128.162L78.4361 128.15Z" fill="#F5A418"/>
<path d="M-16.8929 269.182C-19.3241 270.122 -21.7177 271.25 -23.7227 272.917C-25.6401 274.508 -27.1564 276.526 -28.4096 278.681C-32.4824 285.661 -33.8233 294.709 -29.9886 301.827C-27.4572 306.527 -23.021 309.873 -18.497 312.705C-13.4091 315.875 -8.04552 318.582 -2.46889 320.775C1.61646 322.379 6.15295 323.733 10.326 322.392C13.8976 321.251 16.5919 318.332 18.81 315.311C25.6022 306.063 29.462 294.684 29.7252 283.218C29.7753 281.225 29.7001 279.207 29.1362 277.303C26.5421 268.555 16.6671 266.701 8.80969 265.849C0.125184 264.921 -8.77236 266.037 -16.918 269.182L-16.8929 269.182Z" fill="#245CA7"/>
<path d="M62.1324 221.286C61.2551 218.078 57.0946 217.188 53.7862 217.526C50.4778 217.865 46.8562 218.754 44.024 217.012C41.455 215.421 40.4148 212.125 38.0213 210.283C33.8607 207.1 26.843 209.105 23.5471 205.045C21.2663 202.238 22.131 198.039 20.8653 194.643C18.6973 188.791 10.9151 186.648 8.49649 180.896C7.13053 177.65 7.78217 173.966 7.8323 170.457C7.88242 166.936 6.96761 162.888 3.82214 161.296" stroke="#A9D1C8" stroke-width="4.5" stroke-miterlimit="10"/>
<path d="M58.0219 178.026C59.5132 177.5 60.9919 176.861 62.2201 175.896C63.398 174.968 64.3129 173.778 65.0648 172.499C67.521 168.351 68.2729 162.9 65.8292 158.527C64.2126 155.632 61.4431 153.526 58.6109 151.734C55.4279 149.717 52.0819 147.975 48.6106 146.546C46.0666 145.494 43.247 144.591 40.6655 145.331C38.4724 145.957 36.8182 147.674 35.4773 149.454C31.3544 154.917 29.0611 161.722 29.0109 168.665C29.0109 169.868 29.0611 171.083 29.4245 172.249C31.1163 177.587 37.2443 178.903 42.1191 179.555C47.5078 180.282 53.0092 179.78 58.0219 178.026Z" stroke="#1D236B" stroke-width="1.5" stroke-miterlimit="10"/>
<path d="M53.7987 276.952C56.3928 277.09 58.9618 276.363 61.4305 275.561C64.4632 274.571 67.4332 273.455 70.3657 272.19C72.7592 271.162 75.1528 270.009 77.0952 268.255C78.8872 266.626 80.2031 264.545 81.3435 262.402C82.9851 259.32 84.3135 256.074 85.3035 252.715C86.9827 247.013 87.3462 240.083 83.148 235.885C79.9148 232.664 74.8019 232.038 70.3531 233.003C64.7389 234.218 59.7387 237.615 56.0043 241.963C52.2573 246.312 49.7008 251.575 47.8962 257.026C45.5779 263.994 43.1091 276.388 53.8238 276.939L53.7987 276.952Z" stroke="#1D236B" stroke-width="1.5" stroke-miterlimit="10"/>
<path d="M4.74955 595.885C4.97512 596.962 5.55159 597.927 6.15311 598.842C6.89249 599.97 7.66945 601.06 8.50908 602.113C9.19832 602.978 9.92517 603.83 10.8525 604.431C11.7172 604.983 12.7072 605.296 13.7098 605.522C15.1509 605.86 16.6171 606.035 18.0959 606.073C20.6022 606.136 23.472 605.522 24.7252 603.354C25.6901 601.687 25.3768 599.531 24.4996 597.815C23.3968 595.659 21.4544 593.992 19.2739 592.94C17.0933 591.887 14.6622 591.423 12.2435 591.286C9.1482 591.11 3.82221 591.448 4.77462 595.885L4.74955 595.885Z" fill="#1D236B"/>
<path d="M55.7412 516.408C54.8639 515.757 53.7862 515.406 52.7335 515.105C51.4428 514.742 50.1269 514.441 48.7986 514.19C47.7208 513.99 46.6055 513.827 45.5152 514.002C44.5002 514.153 43.5478 514.579 42.6455 515.067C41.3422 515.769 40.1141 516.596 38.9862 517.549C37.0563 519.165 35.3019 521.509 35.8031 523.965C36.1791 525.857 37.8333 527.273 39.6253 527.975C41.881 528.865 44.4375 528.84 46.7684 528.188C49.0993 527.536 51.2423 526.283 53.1471 524.792C55.5908 522.887 59.3628 519.103 55.7286 516.408L55.7412 516.408Z" fill="#1D236B"/>
<path d="M0.764391 713.708C1.59149 715.099 2.84466 716.177 4.1229 717.179C5.67684 718.408 7.29344 719.56 8.94763 720.638C10.3136 721.528 11.7297 722.368 13.3087 722.769C14.7749 723.132 16.3038 723.094 17.8076 722.957C19.9756 722.744 22.106 722.305 24.1862 721.666C27.7202 720.563 31.4296 718.37 32.1564 714.736C32.7078 711.954 31.2667 709.096 29.2365 707.116C26.6675 704.635 23.1837 703.219 19.6497 702.78C16.1158 702.342 12.4941 702.831 9.04788 703.783C4.6367 704.986 -2.63171 707.994 0.789459 713.721L0.764391 713.708Z" fill="#00BBB6"/>
<path d="M-7.70712 578.39C-6.15318 578.854 -4.49899 578.804 -2.8824 578.679C-0.902383 578.528 1.0651 578.29 3.02005 577.964C4.62412 577.701 6.24071 577.363 7.66933 576.586C8.9977 575.871 10.1005 574.806 11.103 573.678C12.5567 572.062 13.835 570.295 14.9252 568.415C16.7799 565.22 18.0331 561.084 16.1157 557.926C14.637 555.495 11.6419 554.367 8.80972 554.292C5.23818 554.192 1.71675 555.507 -1.19062 557.588C-4.09798 559.668 -6.42889 562.463 -8.32118 565.495C-10.7523 569.368 -14.0733 576.486 -7.6946 578.403L-7.70712 578.39Z" fill="#FF5C2E"/>
<path d="M55.4654 470.103C45.3147 468.324 34.9008 467.409 24.6874 468.813C14.474 470.216 4.41103 474.051 -3.32106 480.868C-6.44146 483.625 -9.22352 486.971 -10.3764 490.969C-12.0306 496.708 -10.0381 503.024 -6.47906 507.824C-2.92004 512.624 2.04253 516.183 7.00511 519.504C11.4037 522.449 15.9026 525.318 20.79 527.361C22.8452 524.128 24.7626 521.233 26.5922 517.862C27.9582 515.356 29.2991 512.711 29.3993 509.854C27.1311 508.588 24.512 506.721 22.6949 504.866C20.8777 503.012 19.5745 500.455 19.8126 497.861C20.0632 495.017 22.1309 492.573 24.6373 491.194C27.1436 489.828 30.0385 489.377 32.8832 489.139C39.1741 488.625 45.5402 489.102 51.6808 490.53C53.3099 484.252 54.4628 476.495 55.4528 470.091L55.4654 470.103Z" fill="#F5A418"/>
<path d="M78.4361 605.02C70.2654 604.97 62.0321 604.193 54.2749 601.649C46.5178 599.105 39.2243 594.694 34.174 588.278C32.1313 585.684 30.4395 582.689 30.1137 579.406C29.6375 574.694 32.0937 570.057 35.5525 566.824C39.0112 563.59 43.3723 561.523 47.7208 559.643C51.568 557.976 55.4779 556.385 59.5758 555.482C60.7162 558.29 61.7939 560.821 62.7464 563.703C63.4607 565.846 64.1249 568.102 63.799 570.345C61.8441 571.009 59.5508 572.087 57.859 573.278C56.1797 574.468 54.8012 576.273 54.6133 578.328C54.4128 580.584 55.6659 582.777 57.4329 584.205C59.1873 585.634 61.3804 586.398 63.5735 586.975C68.3982 588.265 73.4234 588.804 78.4236 588.566C78.7995 593.692 78.599 599.895 78.4612 605.033L78.4361 605.02Z" fill="#F5A418"/>
<path d="M34.2366 375C31.2039 377.77 28.8355 381.266 27.3818 385.101C26.2038 388.209 25.6148 391.667 26.5171 394.863C27.5196 398.422 30.1889 401.216 32.0686 404.4C33.9359 407.583 35.1891 411.63 33.2341 414.763C31.5548 417.445 28.9232 419.463 27.4444 422.27C25.878 425.252 25.8529 428.987 27.3692 431.982C28.3091 433.837 29.7879 435.403 30.4646 437.371C31.9809 441.757 29.0986 446.331 26.3667 450.078C27.6575 451.77 29.0485 453.612 30.8155 454.802C37.0438 450.667 38.9862 441.92 35.4397 435.34C34.7504 434.062 33.8732 432.872 33.3093 431.531C32.3694 429.3 32.3694 426.681 33.3218 424.45C34.4747 421.756 37.4573 419.225 38.7606 416.593C40.6529 412.758 39.9887 408.046 37.9711 404.274C36.2918 401.116 33.4095 397.67 32.595 394.186C31.2917 388.622 34.5123 384.399 37.8583 379.775C36.6678 377.87 35.4272 376.278 34.2241 375.013L34.2366 375Z" fill="#00BBB6"/>
<path d="M-29.3619 458.599C-27.3067 460.191 -25.1011 461.657 -22.6324 462.509C-20.2764 463.324 -17.7701 463.574 -15.2762 463.537C-7.19327 463.411 1.2406 459.865 5.35101 452.91C8.05787 448.311 8.63433 442.784 8.69698 437.446C8.7847 431.456 8.3085 425.453 7.30596 419.55C6.56658 415.227 5.36354 410.653 2.05516 407.771C-0.764483 405.314 -4.66186 404.512 -8.39632 404.186C-19.8253 403.171 -31.555 405.74 -41.5052 411.467C-43.2346 412.457 -44.9264 413.56 -46.2673 415.026C-52.4078 421.768 -48.8864 431.192 -45.5404 438.335C-41.8436 446.243 -36.2795 453.286 -29.3619 458.624L-29.3619 458.599Z" fill="#F28381"/>
<path d="M76.8572 419.976C78.9124 421.568 81.118 423.034 83.5867 423.886C85.9427 424.701 88.449 424.952 90.9429 424.914C99.0258 424.789 107.46 421.242 111.57 414.287C114.277 409.688 114.853 404.161 114.916 398.823C115.004 392.833 114.528 386.83 113.525 380.928C112.786 376.604 111.583 372.03 108.274 369.148C105.455 366.691 101.557 365.889 97.8228 365.564C86.3938 364.549 74.6641 367.118 64.7139 372.845C62.9845 373.835 61.2927 374.937 59.9518 376.404C53.8113 383.146 57.3327 392.57 60.6787 399.713C64.3756 407.62 69.9397 414.663 76.8572 420.002L76.8572 419.976Z" fill="#1D236B"/>
<path d="M-16.8929 746.04C-19.3241 746.98 -21.7177 748.108 -23.7227 749.774C-25.6401 751.366 -27.1564 753.384 -28.4096 755.539C-32.4824 762.519 -33.8233 771.567 -29.9886 778.685C-27.4572 783.385 -23.021 786.731 -18.497 789.563C-13.4091 792.733 -8.04552 795.44 -2.46889 797.633C1.61646 799.237 6.15295 800.591 10.326 799.25C13.8976 798.109 16.5919 795.19 18.81 792.169C25.6022 782.921 29.462 771.542 29.7252 760.076C29.7753 758.083 29.7001 756.065 29.1362 754.161C26.5421 745.413 16.6671 743.559 8.80969 742.707C0.125184 741.779 -8.77236 742.895 -16.918 746.04L-16.8929 746.04Z" fill="#245CA7"/>
<path d="M62.1324 698.144C61.2551 694.936 57.0946 694.046 53.7862 694.384C50.4778 694.723 46.8562 695.612 44.024 693.87C41.455 692.279 40.4148 688.983 38.0213 687.141C33.8607 683.958 26.843 685.963 23.5471 681.903C21.2663 679.095 22.131 674.897 20.8653 671.501C18.6973 665.649 10.9151 663.506 8.49649 657.754C7.13053 654.508 7.78217 650.824 7.8323 647.315C7.88242 643.794 6.96761 639.746 3.82214 638.154" stroke="#A9D1C8" stroke-width="4.5" stroke-miterlimit="10"/>
<path d="M58.0219 654.897C59.5132 654.37 60.9919 653.731 62.2201 652.766C63.398 651.839 64.3129 650.648 65.0648 649.37C67.521 645.222 68.2729 639.771 65.8292 635.397C64.2126 632.502 61.4431 630.397 58.6109 628.605C55.4279 626.587 52.0819 624.846 48.6106 623.417C46.0666 622.364 43.247 621.462 40.6655 622.201C38.4724 622.828 36.8182 624.545 35.4773 626.324C31.3544 631.788 29.0611 638.593 29.0109 645.535C29.0109 646.739 29.0611 647.954 29.4245 649.12C31.1163 654.458 37.2443 655.774 42.1191 656.426C47.5078 657.152 53.0092 656.651 58.0219 654.897Z" stroke="#1D236B" stroke-width="1.5" stroke-miterlimit="10"/>
<path d="M53.7988 753.822C56.3929 753.96 58.9619 753.233 61.4306 752.431C64.4633 751.441 67.4333 750.326 70.3658 749.06C72.7593 748.033 75.1529 746.88 77.0953 745.125C78.8874 743.496 80.2032 741.416 81.3436 739.273C82.9852 736.19 84.3136 732.944 85.3036 729.586C86.9829 723.884 87.3463 716.954 83.1482 712.756C79.915 709.535 74.802 708.909 70.3533 709.874C64.739 711.089 59.7389 714.485 56.0044 718.834C52.2574 723.182 49.7009 728.446 47.8964 733.897C45.578 740.865 43.1092 753.258 53.8239 753.81L53.7988 753.822Z" stroke="#1D236B" stroke-width="1.5" stroke-miterlimit="10"/>
<path d="M58.8741 351.278C62.383 351.152 65.754 349.874 68.9872 348.496C72.9472 346.804 76.8195 344.936 80.6041 342.906C83.712 341.227 86.7948 339.41 89.1884 336.816C91.4065 334.41 92.9353 331.452 94.2136 328.445C96.0558 324.096 97.4593 319.572 98.3867 314.935C99.9657 307.053 99.6398 297.692 93.4742 292.541C88.7497 288.594 81.7946 288.356 75.9047 290.185C68.4984 292.479 62.1699 297.654 57.6585 303.958C53.1345 310.261 50.3149 317.655 48.5354 325.199C46.2546 334.861 44.3999 351.829 58.8741 351.29L58.8741 351.278Z" fill="#A9D1C8"/>
<path d="M67.4334 312.103C68.1101 314.246 69.451 316.101 70.8545 317.868C72.5588 320.023 74.3634 322.104 76.2557 324.096C77.8096 325.725 79.4513 327.317 81.4564 328.357C83.3111 329.322 85.3914 329.761 87.4591 330.049C90.4417 330.462 93.4743 330.563 96.482 330.35C101.595 329.999 107.322 328.219 109.452 323.557C111.094 319.973 110.066 315.65 107.949 312.329C105.292 308.156 101.044 305.123 96.3942 303.394C91.745 301.664 86.7197 301.176 81.7697 301.339C75.4286 301.552 64.6639 303.268 67.4334 312.091L67.4334 312.103Z" stroke="#1D236B" stroke-width="1.5" stroke-miterlimit="10"/>
</g>
</svg>
