<svg width="1440" height="496" viewBox="0 0 1440 496" fill="none" xmlns="http://www.w3.org/2000/svg">
<g opacity="0.2">
<mask id="mask0_1_550" style="mask-type:luminance" maskUnits="userSpaceOnUse" x="-4" y="-1" width="1448" height="497">
<path d="M-3.26377 -0.000335693L-3.26379 496L1443.25 496L1443.25 -0.000272464L-3.26377 -0.000335693Z" fill="white"/>
</mask>
<g mask="url(#mask0_1_550)">
<path d="M464.561 485.582C463.973 472.543 459.163 460.094 453.956 448.113C447.589 433.48 440.565 419.123 432.884 405.131C426.603 393.671 419.735 382.244 410.064 373.454C401.085 365.287 390.082 359.704 378.888 355.04C362.747 348.313 345.914 343.233 328.734 339.938C299.513 334.321 264.826 335.795 245.916 358.82C231.418 376.488 230.761 402.322 237.699 424.117C246.435 451.546 265.76 474.867 289.237 491.477C312.714 508.07 340.187 518.334 368.197 524.732C404.043 532.933 466.983 539.297 464.544 485.582L464.561 485.582Z" fill="#A9D1C8"/>
<path d="M830.641 374.408C830.502 369.224 828.686 364.23 826.696 359.445C824.274 353.584 821.593 347.828 818.634 342.21C816.212 337.598 813.582 333.021 809.794 329.449C806.282 326.137 801.956 323.831 797.545 321.907C791.178 319.115 784.535 316.965 777.736 315.526C766.161 313.082 752.373 313.411 744.691 322.41C738.792 329.328 738.342 339.575 740.937 348.296C744.207 359.271 751.716 368.669 760.919 375.448C770.123 382.21 780.971 386.493 792.043 389.25C806.23 392.769 831.194 395.769 830.623 374.408L830.641 374.408Z" fill="#00BBB6"/>
<path d="M319.184 454.945C327.108 452.396 333.959 447.316 340.429 442.097C348.37 435.699 356 428.955 363.318 421.863C369.321 416.055 375.169 409.9 378.958 402.444C382.47 395.526 384.044 387.793 385.048 380.095C386.483 368.998 386.76 357.745 385.913 346.579C384.459 327.594 377.712 306.406 360.377 298.604C347.073 292.622 331.087 296.558 318.838 304.516C303.441 314.52 292.351 330.385 286.088 347.672C279.825 364.958 278.147 383.649 278.909 402.028C279.895 425.539 286.555 465.487 319.167 454.945L319.184 454.945Z" stroke="#1D236B" stroke-width="1.5" stroke-miterlimit="10"/>
<path d="M-104.109 434.018C-95.1643 443.658 -83.9535 451.148 -71.6355 455.743C-61.6704 459.453 -50.598 461.239 -40.3907 458.257C-29.0588 454.963 -20.1837 446.328 -10.0628 440.242C0.0579826 434.156 12.9642 430.082 23.0331 436.254C31.6661 441.543 38.1712 449.969 47.1674 454.598C56.7347 459.523 68.6721 459.523 78.2393 454.581C84.1388 451.529 89.1213 446.761 95.3841 444.542C109.363 439.583 124.051 448.686 136.11 457.338C141.507 453.177 147.355 448.651 151.109 442.964C137.736 423.129 109.709 417.113 88.758 428.643C84.675 430.897 80.9036 433.74 76.613 435.578C69.4852 438.647 61.129 438.699 53.9666 435.717C45.299 432.11 37.1505 422.592 28.7078 418.482C16.4244 412.501 1.35559 414.772 -10.651 421.308C-20.7026 426.77 -31.6539 436.081 -42.7608 438.786C-60.5112 443.086 -74.0922 432.891 -88.9707 422.279C-95.0432 426.129 -100.078 430.151 -104.109 434.052L-104.109 434.018Z" fill="#00BBB6"/>
<path d="M240.657 616.505C245.692 609.864 250.311 602.756 252.992 594.867C255.553 587.324 256.262 579.245 256.072 571.269C255.449 545.365 243.927 518.421 221.557 505.452C206.782 496.887 189.084 495.205 172.026 495.101C152.874 494.997 133.705 496.644 114.83 500.008C101.007 502.487 86.4052 506.44 77.2878 517.121C69.5026 526.241 67.0458 538.725 66.077 550.688C63.1013 587.342 71.6477 624.862 90.1767 656.609C93.3946 662.105 96.9412 667.515 101.682 671.763C123.394 691.269 153.428 679.739 176.195 668.85C201.385 656.817 223.754 638.785 240.657 616.505Z" fill="#F28381"/>
<path d="M969.097 521.906C977.332 523.085 985.775 523.675 993.958 522.166C1001.78 520.727 1009.17 517.433 1016.03 513.376C1038.32 500.233 1056.19 477.034 1056.6 451.131C1056.88 434.035 1049.73 417.719 1041.52 402.721C1032.3 385.886 1021.54 369.917 1009.41 355.041C1000.53 344.152 989.979 333.298 976.225 330.489C964.495 328.097 952.402 332.032 941.503 337.009C908.095 352.249 879.549 377.979 860.899 409.64C857.664 415.136 854.688 420.875 853.287 427.082C846.851 455.587 871.505 476.254 892.092 490.905C914.842 507.099 941.433 517.918 969.08 521.872L969.097 521.906Z" fill="#245CA7"/>
<path d="M635.144 321.837C632.584 332.188 642.791 341.169 652.549 345.417C662.306 349.648 673.794 352.821 678.967 362.132C683.655 370.61 681.389 381.447 685.212 390.341C691.838 405.755 714.554 411.13 717.408 427.671C719.381 439.115 710.419 449.483 708.62 460.944C705.506 480.71 723.896 498.863 721.647 518.733C720.384 529.934 712.824 539.21 707.167 548.971C701.509 558.716 697.772 571.494 704.035 580.857" stroke="#A9D1C8" stroke-width="4.5" stroke-miterlimit="10"/>
<path d="M438.558 326.137C444.631 338.967 459.526 346.978 473.54 344.932C477.623 344.342 481.671 342.99 485.771 343.458C501.532 345.261 503.47 369.31 517.206 377.268C532.967 386.388 554.887 369.709 570.423 379.21C578.762 384.308 581.668 395.04 588.589 401.924C595.094 408.391 605.249 410.905 614.02 408.217" stroke="#EF4A6A" stroke-width="4.5" stroke-miterlimit="10"/>
<path d="M579.004 449.171C574.021 448.287 568.918 447.767 563.987 448.547C559.281 449.292 554.835 451.2 550.735 453.592C537.396 461.325 526.791 475.387 526.774 491.46C526.756 502.054 531.202 512.318 536.306 521.767C542.015 532.379 548.659 542.487 556.098 551.936C561.548 558.854 568.018 565.79 576.357 567.784C583.468 569.483 590.734 567.264 597.273 564.385C617.307 555.56 634.331 540.129 645.317 520.814C647.22 517.467 648.967 513.965 649.763 510.133C653.396 492.569 638.345 479.288 625.785 469.821C611.91 459.349 595.751 452.153 579.021 449.188L579.004 449.171Z" stroke="#1D236B" stroke-width="1.5" stroke-miterlimit="10"/>
<path d="M745.366 179.228C738.325 174.789 730.055 172.795 721.889 171.166C711.907 169.172 701.838 167.646 691.717 166.588C683.43 165.721 674.953 165.166 666.822 167.056C659.279 168.808 652.341 172.57 645.819 176.749C636.407 182.782 627.636 189.787 619.643 197.624C606.062 210.957 594.194 229.735 599.367 248.062C603.346 262.123 616.633 271.868 630.577 276.15C648.12 281.542 667.375 279.878 684.624 273.567C701.873 267.256 717.236 256.54 730.799 244.143C748.152 228.279 774.397 197.503 745.384 179.211L745.366 179.228Z" stroke="#1D236B" stroke-width="1.5" stroke-miterlimit="10"/>
<path d="M1175.54 411.165C1174.8 407.715 1172.97 404.628 1171.05 401.664C1168.69 398.057 1166.19 394.555 1163.52 391.174C1161.34 388.4 1159.01 385.677 1156.03 383.77C1153.28 382.002 1150.1 381.013 1146.91 380.268C1142.31 379.193 1137.6 378.603 1132.9 378.499C1124.87 378.309 1115.7 380.251 1111.71 387.221C1108.63 392.578 1109.61 399.479 1112.43 404.958C1115.98 411.876 1122.16 417.216 1129.14 420.58C1136.13 423.944 1143.9 425.452 1151.64 425.903C1161.53 426.475 1178.57 425.365 1175.53 411.182L1175.54 411.165Z" fill="#1D236B"/>
<path d="M387.591 278.023C390.411 280.121 393.836 281.23 397.21 282.184C401.345 283.346 405.549 284.317 409.77 285.097C413.23 285.738 416.794 286.241 420.272 285.721C423.507 285.235 426.552 283.883 429.423 282.323C433.576 280.086 437.503 277.416 441.119 274.382C447.278 269.215 452.883 261.69 451.309 253.801C450.098 247.75 444.821 243.207 439.077 240.936C431.863 238.092 423.697 238.161 416.223 240.259C408.749 242.357 401.933 246.363 395.809 251.131C387.989 257.251 375.93 269.353 387.539 278.005L387.591 278.023Z" fill="#1D236B"/>
<path d="M1188.26 33.6018C1185.61 29.1458 1181.6 25.6954 1177.53 22.4704C1172.57 18.5346 1167.41 14.8415 1162.1 11.3738C1157.74 8.54762 1153.21 5.82548 1148.18 4.55977C1143.5 3.38075 1138.59 3.50212 1133.8 3.97026C1126.88 4.64646 1120.03 6.03354 1113.4 8.11416C1102.1 11.6512 1090.24 18.6906 1087.92 30.3074C1086.15 39.2194 1090.75 48.3915 1097.28 54.7201C1105.48 62.6958 1116.62 67.2211 1127.95 68.6255C1139.28 70.03 1150.82 68.4522 1161.84 65.4179C1175.94 61.5514 1199.18 51.9459 1188.26 33.5844L1188.26 33.6018Z" fill="#00BBB6"/>
<path d="M86.7685 24.3081C82.08 22.1235 76.8207 21.5339 71.6478 21.1525C65.3331 20.7017 59.001 20.5457 52.669 20.6844C47.4789 20.7884 42.2022 21.1178 37.3408 22.9037C32.8253 24.5682 28.8289 27.429 25.1266 30.5326C19.798 34.9886 14.9192 39.9994 10.594 45.4611C3.24129 54.7545 -2.62354 67.2556 1.99571 78.1788C5.54232 86.5533 14.504 91.5295 23.4311 93.09C34.6765 95.0492 46.4409 92.5178 56.5963 87.2816C66.7517 82.0453 75.4019 74.2257 82.8066 65.5217C92.2873 54.3731 106.111 33.3241 86.7685 24.3081Z" fill="#A9D1C8"/>
<path d="M1215.35 467.22C1210.39 465.729 1205.09 465.903 1199.94 466.301C1193.62 466.77 1187.33 467.532 1181.08 468.59C1175.96 469.457 1170.79 470.532 1166.22 473.011C1161.98 475.317 1158.45 478.716 1155.23 482.322C1150.6 487.506 1146.5 493.176 1143 499.193C1137.07 509.44 1133.07 522.686 1139.21 532.812C1143.92 540.58 1153.5 544.221 1162.59 544.463C1174 544.775 1185.27 540.562 1194.56 533.922C1203.85 527.264 1211.29 518.282 1217.36 508.59C1225.13 496.193 1235.77 473.358 1215.34 467.22L1215.35 467.22Z" fill="#F5A418"/>
<path d="M735.574 -62.4186C755.349 -62.1759 777.39 -54.9977 785.711 -37.035C788.583 -30.8105 789.5 -23.459 787.009 -17.0611C782.839 -6.3632 769.708 1.66453 772.026 12.8999C773.722 21.0663 782.701 25.0368 790.261 28.5392C797.822 32.0243 806.178 38.4742 804.638 46.6753C802.372 58.6909 781.87 59.5578 779.5 71.556C777.805 80.0866 786.853 86.7272 795.002 89.7268C803.15 92.7263 812.856 95.6046 815.935 103.736C818.271 109.909 815.52 117.174 810.641 121.612C805.78 126.068 799.206 128.166 792.735 129.345C771.265 133.246 748.93 128.253 729.069 119.185C706.319 108.799 685.818 92.813 671.925 71.9895C654.158 45.3576 645.438 6.65801 660.715 -21.7425C674.918 -48.149 709.087 -62.7654 735.557 -62.4359L735.574 -62.4186Z" fill="#1D236B"/>
<path d="M1293.33 238.387C1313.36 240.589 1335.04 250.021 1341.73 269.076C1344.05 275.665 1344.26 283.224 1341.09 289.466C1335.82 299.921 1321.7 306.77 1322.96 318.404C1323.88 326.865 1332.62 331.772 1339.95 336.055C1347.29 340.338 1355.12 347.706 1352.77 355.873C1349.29 367.854 1328.41 366.709 1324.83 378.656C1322.29 387.152 1330.8 394.78 1338.78 398.63C1346.75 402.479 1356.32 406.345 1358.65 414.91C1360.42 421.412 1356.91 428.504 1351.54 432.544C1346.16 436.584 1339.29 438.075 1332.6 438.63C1310.42 440.485 1288.26 433.22 1268.99 422.054C1246.91 409.275 1227.67 391.053 1215.61 368.547C1200.18 339.765 1195.13 299.644 1213.4 272.319C1230.39 246.918 1266.49 235.44 1293.33 238.37L1293.33 238.387Z" fill="#1D236B"/>
<path d="M180.347 75.8559C213.322 76.0813 246.574 79.2023 277.905 89.5013C309.236 99.8004 338.682 117.659 359.062 143.632C367.297 154.122 374.131 166.259 375.463 179.523C377.366 198.578 367.47 217.338 353.526 230.429C339.582 243.519 321.935 251.859 304.41 259.505C288.874 266.267 273.096 272.7 256.556 276.341C251.972 264.967 247.577 254.72 243.736 243.068C240.865 234.382 238.183 225.262 239.515 216.211C247.387 213.506 256.677 209.154 263.476 204.334C270.276 199.497 275.794 192.232 276.556 183.927C277.386 174.807 272.282 165.912 265.189 160.156C258.096 154.399 249.238 151.296 240.415 148.938C220.934 143.719 200.623 141.534 180.486 142.488C178.946 121.768 179.794 96.6448 180.347 75.8733L180.347 75.8559Z" fill="#F5A418"/>
<path d="M568.849 223.563C578.537 214.668 586.115 203.485 590.786 191.192C594.575 181.239 596.426 170.143 593.554 159.896C590.353 148.504 581.807 139.558 575.821 129.362C569.835 119.167 565.856 106.198 572.101 96.1592C577.447 87.5593 585.907 81.1094 590.595 72.1281C595.595 62.5745 595.682 50.611 590.82 40.9881C587.827 35.0583 583.104 30.0128 580.942 23.7189C576.115 9.67474 585.301 -4.9763 594.038 -16.9919C589.921 -22.4188 585.457 -28.3313 579.817 -32.1284C559.922 -18.8818 553.711 9.15458 565.025 30.2382C567.24 34.3474 570.042 38.1619 571.842 42.4619C574.852 49.6227 574.835 58.0145 571.79 65.158C568.122 73.8099 558.555 81.907 554.403 90.3335C548.33 102.609 550.493 117.711 556.911 129.796C562.274 139.904 571.478 150.966 574.091 162.115C578.243 179.939 567.949 193.463 557.257 208.305C561.046 214.425 565.025 219.505 568.883 223.563L568.849 223.563Z" fill="#00BBB6"/>
<path d="M1380.99 94.4949C1388.76 91.4953 1396.4 87.8716 1402.8 82.5486C1408.93 77.4685 1413.77 70.9665 1417.77 64.0831C1430.8 41.7165 1435.09 12.7091 1422.82 -10.091C1414.73 -25.1408 1400.54 -35.8733 1386.06 -44.924C1369.8 -55.0844 1352.62 -63.771 1334.8 -70.8104C1321.73 -75.96 1307.24 -80.2773 1293.86 -75.9773C1282.46 -72.3189 1273.83 -62.9561 1266.75 -53.2812C1245.04 -23.6324 1232.67 12.7958 1231.84 49.5708C1231.7 55.934 1231.91 62.4013 1233.71 68.5218C1242 96.5408 1273.59 102.505 1298.67 105.21C1326.42 108.192 1354.9 104.621 1380.94 94.5295L1380.99 94.4949Z" fill="#245CA7"/>
<path d="M342.505 -3.08649C339.668 7.92346 350.239 17.7717 360.585 22.4531C370.93 27.1172 383.058 30.2728 389.251 39.7743C395.86 49.9173 393.473 64.2389 400.756 73.9138C409.614 85.6693 428.956 85.5479 437.122 97.7889C447.849 113.862 431.309 138.014 441.949 154.139C446.724 161.387 455.616 164.56 462.225 170.195C469.405 176.332 473.782 185.66 473.903 195.127" stroke="#F28381" stroke-width="4.5" stroke-miterlimit="10"/>
<path d="M301.14 -54.7551C303.942 -44.4734 317.229 -41.6299 327.817 -42.7049C338.388 -43.7799 349.962 -46.6407 359.01 -41.0577C367.245 -35.9602 370.532 -25.401 378.214 -19.5059C391.501 -9.29357 413.957 -15.7435 424.493 -2.70494C431.776 6.31109 429.026 19.7484 433.057 30.6197C439.977 49.3799 464.872 56.2286 472.606 74.6595C476.965 85.0452 474.889 96.8528 474.716 108.123C474.543 119.393 477.502 132.379 487.536 137.477" stroke="#A9D1C8" stroke-width="4.5" stroke-miterlimit="10"/>
<path d="M1288.92 182.938C1301.82 188.799 1318.34 185.244 1327.74 174.599C1330.47 171.495 1332.69 167.837 1336.11 165.548C1349.29 156.705 1366.3 173.801 1381.91 170.957C1399.81 167.698 1405.76 140.754 1423.74 137.928C1433.37 136.402 1442.53 142.713 1452.25 143.476C1461.38 144.187 1470.74 139.523 1475.71 131.79" stroke="#EF4A6A" stroke-width="4.5" stroke-miterlimit="10"/>
<path d="M862.578 158.179C865.917 150.411 871.747 144.013 877.992 138.309C904.618 114 939.53 98.9853 975.464 96.4192C984.564 95.7777 995.896 97.3035 999.096 105.869C1002.35 114.573 994.442 123.346 986.553 128.218C968.007 139.661 945.966 143.736 925.967 152.405C922.714 153.81 918.96 156.272 919.375 159.809C919.877 163.987 925.43 165.01 929.617 164.716C954.928 162.982 978.976 153.636 1003.11 145.799C1027.05 138.014 1051.45 131.651 1076.12 126.727C1097.09 122.548 1118.83 119.427 1139.7 124.074C1148.05 125.947 1157.17 130.091 1159.63 138.309C1162.28 147.186 1155.63 156.358 1147.79 161.248C1135.49 168.912 1120.32 169.987 1105.84 170.091C1065.67 170.385 1025.17 164.941 985.533 171.495C982.626 171.98 979.045 173.264 978.907 176.211C978.768 179.124 982.176 180.771 984.996 181.482C1001.19 185.557 1018.11 185.296 1034.77 186.389C1067.21 188.504 1099.3 195.873 1129.44 208.114C1137.41 211.356 1145.37 214.997 1152.02 220.494C1158.66 225.99 1163.92 233.584 1165.06 242.149C1165.61 246.311 1165.11 250.749 1162.83 254.252C1159.73 259.02 1153.9 261.326 1148.26 262.054C1136.69 263.562 1125.13 259.713 1114.27 255.413C1058.06 233.168 1006.86 197.208 947.731 184.707C944.202 183.961 940.517 183.302 937.056 184.325C933.596 185.348 930.517 188.539 930.863 192.145C931.243 196.168 935.378 198.612 939.046 200.294C970.966 214.963 1006.54 224.69 1031.53 249.397C1039.04 256.818 1045.74 267.03 1043.3 277.312C1041.57 284.594 1035.32 290.264 1028.27 292.726C1021.21 295.188 1013.65 294.546 1006.6 292.015C979.962 282.461 961.312 267.221 938.562 251.009C920.154 237.901 906.867 225.123 889.687 210.42C874.947 197.797 855.432 174.737 862.56 158.196L862.578 158.179Z" fill="#FF5C2E"/>
<path d="M-103.988 319.739C-99.5241 326.657 -92.8807 331.876 -85.9778 336.332C-56.4631 355.387 -20.4779 364.143 14.4693 360.78C23.3271 359.93 33.967 356.618 35.6624 347.862C37.3752 338.968 28.3616 331.824 19.9881 328.426C0.317406 320.433 -21.5332 320.086 -42.1381 315.006C-45.4944 314.174 -49.5081 312.422 -49.6638 308.955C-49.8715 304.863 -44.6813 302.973 -40.5984 302.574C-15.997 300.13 8.63899 305.227 33.0847 308.851C57.3574 312.44 81.8204 314.607 106.335 315.335C127.165 315.96 148.583 315.422 167.873 307.568C175.607 304.412 183.703 298.95 184.724 290.645C185.831 281.681 177.977 273.948 169.655 270.515C156.593 265.14 141.836 266.579 127.892 268.816C89.2424 275.041 51.1811 286.848 12.0299 286.97C9.15803 286.97 5.50762 286.328 4.90209 283.519C4.29658 280.728 7.30691 278.612 9.90199 277.468C24.8151 270.914 41.1122 268.435 56.9422 264.672C87.7718 257.373 117.442 245.08 144.431 228.435C151.576 224.031 158.635 219.228 164.136 212.865C169.621 206.502 173.462 198.335 173.167 189.926C173.029 185.834 171.818 181.655 169.067 178.656C165.313 174.564 159.344 173.316 153.808 173.524C142.442 173.957 131.957 179.523 122.217 185.418C71.7861 215.916 28.379 258.777 -26.4292 280.398C-29.699 281.681 -33.1419 282.912 -36.6366 282.496C-40.114 282.08 -43.6087 279.497 -43.8509 275.994C-44.1277 272.058 -40.5465 269.059 -37.294 266.84C-8.99027 247.559 23.6386 232.457 43.6726 204.646C49.6932 196.289 54.4856 185.401 50.4718 175.899C47.6345 169.172 40.7142 164.75 33.5345 163.519C26.3548 162.288 19.1924 164.144 12.8258 167.715C-11.2393 181.222 -26.7061 198.89 -45.9616 218.17C-61.5321 233.758 -72.2411 248.201 -86.3757 265.123C-98.5034 279.635 -113.538 304.967 -104.005 319.722L-103.988 319.739Z" fill="#FF5C2E"/>
<path d="M1346.99 508.469C1342.67 514.225 1338.72 520.363 1336.54 527.125C1334.45 533.592 1334.02 540.441 1334.38 547.186C1335.57 569.102 1346.53 591.59 1366.8 601.958C1380.19 608.807 1396.01 609.743 1411.23 609.362C1428.32 608.928 1445.36 607.021 1462.09 603.64C1474.34 601.178 1487.27 597.415 1495.14 588.122C1501.85 580.198 1503.72 569.552 1504.29 559.392C1506.02 528.269 1497.47 496.748 1480.14 470.376C1477.13 465.799 1473.82 461.343 1469.5 457.858C1449.64 441.941 1423.17 452.518 1403.13 462.366C1380.97 473.254 1361.47 489.119 1346.98 508.434L1346.99 508.469Z" stroke="#1D236B" stroke-width="1.5" stroke-miterlimit="10"/>
<path d="M244.221 107.967C250.795 102.869 255.518 95.7606 259.843 88.6344C265.137 79.9132 270.033 70.9665 274.497 61.7944C278.165 54.2869 281.59 46.5019 282.611 38.1967C283.562 30.4984 282.421 22.6788 280.742 15.1018C278.32 4.17857 274.774 -6.50195 270.172 -16.697C262.352 -34.0528 248.823 -51.6861 229.879 -53.1079C215.329 -54.2002 201.644 -45.0455 192.821 -33.394C181.731 -18.7429 176.697 -0.0346908 176.68 18.3615C176.68 36.7576 181.42 54.911 188.375 71.9201C197.285 93.6973 217.111 128.981 244.204 107.95L244.221 107.967Z" stroke="#1D236B" stroke-width="1.5" stroke-miterlimit="10"/>
<path d="M945.655 -72.7006C937.351 -73.1167 929.15 -70.8107 921.244 -68.2446C911.573 -65.089 902.04 -61.4826 892.681 -57.4601C885.016 -54.1484 877.352 -50.4726 871.176 -44.855C865.449 -39.6361 861.228 -32.9607 857.578 -26.112C852.318 -16.2464 848.062 -5.82598 844.931 4.9239C839.585 23.1987 838.391 45.392 851.834 58.8467C862.162 69.1804 878.494 71.157 892.75 68.0707C910.69 64.1869 926.676 53.2983 938.631 39.3582C950.603 25.418 958.786 8.53031 964.564 -8.91223C971.969 -31.2442 979.858 -70.9667 945.62 -72.7006L945.655 -72.7006Z" stroke="#1D236B" stroke-width="1.5" stroke-miterlimit="10"/>
</g>
</g>
</svg>
