<svg width="181" height="199" viewBox="0 0 181 199" fill="none" xmlns="http://www.w3.org/2000/svg">
<path d="M11.3996 149.64C14.0526 157.257 17.2866 164.739 22.2053 170.98C26.8916 176.95 32.9916 181.621 39.4788 185.478C60.5479 197.999 88.2591 201.798 110.509 189.374C125.207 181.175 135.936 167.026 145.057 152.625C155.301 136.46 164.15 119.384 171.451 101.726C176.796 88.7788 181.366 74.4164 177.648 61.3138C174.472 50.1301 165.758 41.7569 156.695 34.9148C128.906 13.9429 94.3204 2.29394 59.0568 2.0032C52.9374 1.96444 46.7407 2.25523 40.815 4.11595C13.6847 12.7024 7.00383 43.9083 3.63433 68.6986C-0.064381 96.0861 2.51112 124.113 11.3996 149.64Z" stroke="#1D236B" stroke-width="3" stroke-miterlimit="10"/>
</svg>
