<svg width="25" height="24" viewBox="0 0 25 24" fill="none" xmlns="http://www.w3.org/2000/svg">
<path d="M12.507 2.04004C7.00702 2.04004 2.50702 6.53004 2.50702 12.06C2.50702 17.06 6.16702 21.21 10.947 21.96V14.96H8.40702V12.06H10.947V9.85004C10.947 7.34004 12.437 5.96004 14.727 5.96004C15.817 5.96004 16.957 6.15004 16.957 6.15004V8.62004H15.697C14.457 8.62004 14.067 9.39004 14.067 10.18V12.06H16.847L16.397 14.96H14.067V21.96C16.4235 21.5879 18.5692 20.3856 20.1169 18.5701C21.6647 16.7546 22.5124 14.4457 22.507 12.06C22.507 6.53004 18.007 2.04004 12.507 2.04004Z" fill="#3579EA"/>
</svg>
