<svg width="74" height="82" viewBox="0 0 74 82" fill="none" xmlns="http://www.w3.org/2000/svg">
<path d="M57.2207 19.8325C62.7445 19.8325 67.2224 15.3928 67.2224 9.91623C67.2224 4.43965 62.7445 0 57.2207 0C51.697 0 47.2191 4.43965 47.2191 9.91623C47.2191 15.3928 51.697 19.8325 57.2207 19.8325Z" fill="#0EA8B3"/>
<path d="M24.4597 48.2599C28.0836 48.2599 31.0213 45.3473 31.0213 41.7543C31.0213 38.1613 28.0836 35.2487 24.4597 35.2487C20.8358 35.2487 17.898 38.1613 17.898 41.7543C17.898 45.3473 20.8358 48.2599 24.4597 48.2599Z" fill="#0EA8B3"/>
<path d="M26.694 56.7589C21.9336 54.0935 13.8212 45.6006 13.8212 38.2087C13.8212 31.7232 19.3062 28.7692 23.2947 28.7692C27.9129 28.7692 29.7819 31.4883 33.2489 31.4883C36.33 31.4883 39.8309 29.6285 39.8309 24.7476C39.8309 20.3837 33.6349 13.8713 23.0035 13.8713C6.69752 13.8646 0.555693 27.4801 0.345774 35.06C0.0884534 44.6002 7.32051 55.9599 15.8663 64.614C19.7057 63.3451 23.464 59.9949 26.6873 56.7589H26.694Z" fill="#FF6631"/>
<path d="M65.9831 32.8775C70.7842 32.8842 72.8089 35.6369 73.3709 37.0803C73.398 37.1408 73.4522 37.1743 73.5063 37.1743C73.5741 37.1743 73.6486 37.1273 73.6486 37.0401C73.784 34.0189 72.9917 23.1224 61.5071 23.1224C48.4244 23.1224 44.4698 35.9659 36.7908 47.1846C29.3285 58.0877 19.6858 67.7824 12.8871 67.7824C7.94382 67.7824 6.16966 65.5534 5.57376 64.3718C5.56022 64.3449 5.5399 64.3315 5.51282 64.3315C5.47219 64.3315 5.43156 64.3651 5.4451 64.4188C6.01391 66.9432 8.52617 74.8855 17.634 74.8855C43.217 74.8855 52.3248 32.8574 65.9831 32.8775Z" fill="#0EA8B3"/>
<path d="M25.1301 76.0049C29.7551 79.3215 34.3598 81.9533 37.4206 81.9533C48.4921 81.9533 71.8473 58.7035 73.6553 41.5968C73.6012 41.3686 72.2468 35.7156 66.7348 35.7156C61.2227 35.7156 56.232 43.1276 50.5574 51.7145C44.1583 61.3823 36.1881 72.4063 25.1301 76.0049Z" fill="#FF6631"/>
<path d="M5.93961 62.0625C6.75897 64.5265 8.89202 65.4396 10.6459 65.6343C10.9167 65.6678 11.1808 65.6745 11.4381 65.6745C12.8263 65.6745 13.8759 65.2919 13.8759 65.2919C9.62335 61.1428 7.17881 57.1145 7.17881 57.1145C7.17881 57.1145 5.14056 59.659 5.93961 62.0625Z" fill="#0EA8B3"/>
</svg>
