<svg width="92" height="34" viewBox="0 0 92 34" fill="none" xmlns="http://www.w3.org/2000/svg">
<path d="M2.78644 1.21619H8.98955C11.6006 1.21619 13.2731 2.77229 13.2731 5.2166C13.2731 8.4283 10.8667 10.6381 7.38055 10.6381H4.24019L3.60506 14.3543H0.49292L2.78644 1.21619ZM7.85337 7.9167C9.13774 7.9167 10.2034 6.90062 10.2034 5.53636C10.2034 4.5629 9.53294 3.95892 8.50967 3.95892H5.35519L4.66361 7.9167H7.85337Z" fill="#3C3C3B"/>
<path d="M13.4143 9.64336C13.9153 6.77272 15.9125 4.89685 18.5236 4.89685C19.8291 4.89685 20.8171 5.33029 21.4522 6.17585L21.8051 5.0887H24.4161L22.793 14.3614H20.1819V13.3311C19.3069 14.1198 18.2624 14.5533 17.1051 14.5533C14.5363 14.5533 12.9132 12.4714 13.4143 9.65756V9.64336ZM18.0719 12.045C19.3774 12.045 20.4219 11.0858 20.683 9.7002C20.9441 8.31462 20.2172 7.37669 18.9117 7.37669C17.6061 7.37669 16.5264 8.35015 16.2865 9.74283C16.0607 11.1355 16.7875 12.0521 18.079 12.0521L18.0719 12.045Z" fill="#3C3C3B"/>
<path d="M26.5403 5.08155H29.222L29.0738 6.36054C29.7654 5.38708 30.6616 4.87549 31.7554 4.87549C32.687 4.87549 33.5268 5.21656 34.0137 5.81342L32.4117 8.04456C32.0024 7.66797 31.5155 7.48322 30.9933 7.48322C29.8218 7.48322 28.9256 8.38562 28.6786 9.81384L27.8741 14.3543H24.9102L26.5333 5.08155H26.5403Z" fill="#3C3C3B"/>
<path d="M33.6608 9.66463C34.183 6.64477 36.3425 4.87549 39.4052 4.87549C42.8561 4.87549 44.4016 7.334 43.2442 10.6026H36.5118C36.5471 11.5618 37.3728 12.18 38.636 12.18C39.5111 12.18 40.4426 11.8815 41.1695 11.3557L42.4397 13.1392C41.2683 14.1127 39.9063 14.5817 38.135 14.5817C34.9452 14.5817 33.1598 12.5708 33.6608 9.66463ZM40.859 8.91144C41.0636 7.84561 40.4285 7.2061 39.1441 7.2061C37.9726 7.2061 37.147 7.82429 36.78 8.91144H40.859Z" fill="#3C3C3B"/>
<path d="M45.8906 5.08155H48.4805V6.13317C49.3909 5.25208 50.5341 4.87549 51.5927 4.87549C54.1685 4.87549 55.0788 6.6803 54.6342 9.19566L53.738 14.3543H50.7529L51.6491 9.28803C51.8326 8.17957 51.4445 7.37664 50.3789 7.37664C49.3132 7.37664 48.3253 8.12982 48.0853 9.49409L47.2244 14.3543H44.2604L45.8835 5.08155H45.8906Z" fill="#3C3C3B"/>
<path d="M57.1536 11.2207L57.8028 7.43347H56.2361L56.6455 5.08864H58.2121L58.6214 2.77934L61.6206 2.45959L61.1549 5.08864H63.4131L63.0038 7.43347H60.7456L60.1457 10.8299C59.9975 11.6186 60.2375 11.9952 60.929 11.9952C61.3031 11.9952 61.6771 11.9028 62.0652 11.7323L62.3475 13.9848C61.5642 14.3614 60.7667 14.5461 59.8282 14.5461C57.7252 14.5461 56.7725 13.3808 57.1465 11.2278L57.1536 11.2207Z" fill="#3C3C3B"/>
<path d="M65.1703 5.08157H68.1342L66.5111 14.3543H63.5472L65.1703 5.08157ZM67.3297 0.953247C68.3742 0.953247 68.967 1.62828 68.7835 2.64437C68.6353 3.50414 67.8167 4.16495 66.864 4.16495C65.8195 4.16495 65.2267 3.48992 65.3891 2.49515C65.5161 1.61406 66.3559 0.953247 67.3297 0.953247Z" fill="#3C3C3B"/>
<path d="M70.2796 5.08155H72.8695V6.13317C73.7798 5.25208 74.9231 4.87549 75.9816 4.87549C78.5574 4.87549 79.4678 6.6803 79.0232 9.19566L78.127 14.3543H75.1419L76.0381 9.28803C76.2216 8.17957 75.8334 7.37664 74.7678 7.37664C73.7022 7.37664 72.7142 8.12982 72.4743 9.49409L71.6134 14.3543H68.6494L70.2725 5.08155H70.2796Z" fill="#3C3C3B"/>
<path d="M79.6795 17.7152L81.098 15.5978C81.973 16.1591 83.0951 16.5002 84.1184 16.5002C85.7556 16.5002 86.7294 15.7328 86.9906 14.2122L87.1388 13.4022C86.2849 14.0772 85.2969 14.4325 84.2313 14.4325C81.7119 14.4325 80.0182 12.4429 80.5052 9.62914C80.9921 6.79403 83.0598 4.89685 85.6144 4.89685C86.8424 4.89685 87.8868 5.30897 88.5431 6.17585L88.8959 5.0887H91.507L89.8486 14.532C89.3264 17.4808 87.3857 18.9587 83.9984 18.9587C82.3188 18.9587 80.9215 18.5466 79.6936 17.7223L79.6795 17.7152ZM85.1769 12.0095C86.5954 12.0095 87.6963 10.901 87.788 9.38044C87.9009 8.17961 87.174 7.36957 85.9814 7.36957C84.697 7.36957 83.6314 8.30751 83.3703 9.69309C83.1304 11.1 83.8149 12.0024 85.1769 12.0024V12.0095Z" fill="#3C3C3B"/>
<path d="M14.1341 20.1951H17.2462L15.4396 30.5549H21.8897L21.4028 33.3332H11.8406L14.1341 20.1951Z" fill="#3C3C3B"/>
<path d="M22.8918 28.6435C23.4141 25.6236 25.5735 23.8544 28.6362 23.8544C32.0871 23.8544 33.6326 26.3129 32.4752 29.5814H25.7429C25.7781 30.5407 26.6038 31.1589 27.867 31.1589C28.7421 31.1589 29.6736 30.8604 30.4005 30.3346L31.6707 32.1181C30.4993 33.0916 29.1373 33.5605 27.366 33.5605C24.1762 33.5605 22.3908 31.5497 22.8918 28.6435ZM30.09 27.8903C30.2946 26.8245 29.6595 26.185 28.3751 26.185C27.2037 26.185 26.378 26.8032 26.011 27.8903H30.09Z" fill="#3C3C3B"/>
<path d="M33.8231 28.6222C34.3241 25.7516 36.3213 23.8757 38.9324 23.8757C40.2379 23.8757 41.2259 24.3092 41.861 25.1547L42.2139 24.0676H44.825L43.2018 33.3403H40.5908V32.31C39.7157 33.0987 38.6713 33.5322 37.5139 33.5322C34.9452 33.5322 33.3221 31.4502 33.8231 28.6364V28.6222ZM38.4807 31.0239C39.7863 31.0239 40.8307 30.0647 41.0918 28.6791C41.3529 27.2935 40.626 26.3556 39.3205 26.3556C38.015 26.3556 36.9352 27.329 36.6953 28.7217C36.4695 30.1144 37.1963 31.031 38.4878 31.031L38.4807 31.0239Z" fill="#3C3C3B"/>
<path d="M45.6436 28.6222C46.1446 25.7516 48.1629 23.8757 50.8093 23.8757C52.0231 23.8757 52.9546 24.2665 53.5121 24.9842L54.3308 20.1951H57.3159L55.0223 33.3332H52.4113V32.3029C51.5362 33.0916 50.4917 33.5251 49.3344 33.5251C46.7798 33.5251 45.1425 31.4787 45.6436 28.6293V28.6222ZM50.3012 31.0239C51.6068 31.0239 52.6512 30.0647 52.9123 28.6791C53.1734 27.2935 52.4254 26.3556 51.141 26.3556C49.8566 26.3556 48.7557 27.329 48.5158 28.7217C48.29 30.1144 49.0168 31.031 50.3083 31.031L50.3012 31.0239Z" fill="#3C3C3B"/>
<path d="M57.4641 28.6435C57.9863 25.6236 60.1458 23.8544 63.2085 23.8544C66.6594 23.8544 68.2048 26.3129 67.0475 29.5814H60.3151C60.3504 30.5407 61.1761 31.1589 62.4393 31.1589C63.3143 31.1589 64.2459 30.8604 64.9727 30.3346L66.243 32.1181C65.0715 33.0916 63.7095 33.5605 61.9382 33.5605C58.7485 33.5605 56.9631 31.5497 57.4641 28.6435ZM64.6622 27.8903C64.8669 26.8245 64.2318 26.185 62.9474 26.185C61.7759 26.185 60.9503 26.8032 60.5833 27.8903H64.6622Z" fill="#3C3C3B"/>
<path d="M69.6938 24.0676H72.3755L72.2273 25.3466C72.9189 24.3732 73.8151 23.8616 74.9089 23.8616C75.8405 23.8616 76.6803 24.2026 77.1672 24.7995L75.5652 27.0306C75.1559 26.6541 74.669 26.4693 74.1468 26.4693C72.9753 26.4693 72.0791 27.3717 71.8321 28.7999L71.0276 33.3404H68.0637L69.6868 24.0676H69.6938Z" fill="#3C3C3B"/>
</svg>
