<svg width="74" height="70" viewBox="0 0 74 70" fill="none" xmlns="http://www.w3.org/2000/svg">
<path d="M0.820779 12.528C0.384029 16.8536 1.36694 21.1684 2.49766 25.374C3.89301 30.496 5.51092 35.5556 7.35801 40.5324C8.86627 44.6135 10.5773 48.6931 13.3506 52.0621C15.9122 55.183 19.2787 57.5547 22.7375 59.6421C27.7388 62.6564 33.0467 65.1416 38.539 67.0581C47.9032 70.343 59.4202 71.565 66.7671 64.924C72.4233 59.8222 73.8865 51.3623 72.6537 43.8685C71.1136 34.4117 65.8826 25.8004 58.9445 19.1945C52.0064 12.5886 43.448 7.85904 34.5284 4.3817C23.1127 -0.0625623 2.6583 -5.26156 0.847695 12.5143L0.820779 12.528Z" fill="#A3CAC1"/>
</svg>
