<svg width="25" height="24" viewBox="0 0 25 24" fill="none" xmlns="http://www.w3.org/2000/svg">
<path d="M17.5155 20.9949L7.51552 21.0044C5.31552 21.0064 3.51402 19.2084 3.51152 17.0084L3.50202 7.00837C3.50002 4.80837 5.29802 3.00687 7.49802 3.00437L17.498 2.99487C19.698 2.99287 21.4995 4.79087 21.502 6.99088L21.5115 16.9909C21.514 19.1914 19.7155 20.9929 17.5155 20.9949Z" fill="url(#paint0_radial_1_691)"/>
<path d="M17.5155 20.9949L7.51552 21.0044C5.31552 21.0064 3.51402 19.2084 3.51152 17.0084L3.50202 7.00837C3.50002 4.80837 5.29802 3.00687 7.49802 3.00437L17.498 2.99487C19.698 2.99287 21.4995 4.79087 21.502 6.99088L21.5115 16.9909C21.514 19.1914 19.7155 20.9929 17.5155 20.9949Z" fill="url(#paint1_radial_1_691)"/>
<path d="M12.507 15.5C10.5775 15.5 9.00702 13.93 9.00702 12C9.00702 10.07 10.5775 8.5 12.507 8.5C14.4365 8.5 16.007 10.07 16.007 12C16.007 13.93 14.4365 15.5 12.507 15.5ZM12.507 9.5C11.1285 9.5 10.007 10.6215 10.007 12C10.007 13.3785 11.1285 14.5 12.507 14.5C13.8855 14.5 15.007 13.3785 15.007 12C15.007 10.6215 13.8855 9.5 12.507 9.5Z" fill="white"/>
<path d="M16.257 9C16.6712 9 17.007 8.66421 17.007 8.25C17.007 7.83579 16.6712 7.5 16.257 7.5C15.8428 7.5 15.507 7.83579 15.507 8.25C15.507 8.66421 15.8428 9 16.257 9Z" fill="white"/>
<path d="M15.507 18.5H9.50702C7.57752 18.5 6.00702 16.93 6.00702 15V9C6.00702 7.07 7.57752 5.5 9.50702 5.5H15.507C17.4365 5.5 19.007 7.07 19.007 9V15C19.007 16.93 17.4365 18.5 15.507 18.5ZM9.50702 6.5C8.12852 6.5 7.00702 7.6215 7.00702 9V15C7.00702 16.3785 8.12852 17.5 9.50702 17.5H15.507C16.8855 17.5 18.007 16.3785 18.007 15V9C18.007 7.6215 16.8855 6.5 15.507 6.5H9.50702Z" fill="white"/>
<defs>
<radialGradient id="paint0_radial_1_691" cx="0" cy="0" r="1" gradientUnits="userSpaceOnUse" gradientTransform="translate(10.197 21.0174) scale(22.4495)">
<stop stop-color="#FFDD55"/>
<stop offset="0.328" stop-color="#FF543F"/>
<stop offset="0.348" stop-color="#FC5245"/>
<stop offset="0.504" stop-color="#E64771"/>
<stop offset="0.643" stop-color="#D53E91"/>
<stop offset="0.761" stop-color="#CC39A4"/>
<stop offset="0.841" stop-color="#C837AB"/>
</radialGradient>
<radialGradient id="paint1_radial_1_691" cx="0" cy="0" r="1" gradientUnits="userSpaceOnUse" gradientTransform="translate(6.40002 2.77003) scale(14.9065 9.9322)">
<stop stop-color="#4168C9"/>
<stop offset="0.999" stop-color="#4168C9" stop-opacity="0"/>
</radialGradient>
</defs>
</svg>
