<svg width="39" height="43" viewBox="0 0 39 43" fill="none" xmlns="http://www.w3.org/2000/svg">
<path d="M29.7247 10.3639C32.6112 10.3639 34.9513 8.04385 34.9513 5.18194C34.9513 2.32004 32.6112 0 29.7247 0C26.8381 0 24.4981 2.32004 24.4981 5.18194C24.4981 8.04385 26.8381 10.3639 29.7247 10.3639Z" fill="#0EA8B3"/>
<path d="M12.6047 25.219C14.4985 25.219 16.0337 23.6969 16.0337 21.8193C16.0337 19.9418 14.4985 18.4197 12.6047 18.4197C10.711 18.4197 9.17578 19.9418 9.17578 21.8193C9.17578 23.6969 10.711 25.219 12.6047 25.219Z" fill="#0EA8B3"/>
<path d="M13.7723 29.6608C11.2847 28.268 7.04538 23.8298 7.04538 19.9671C7.04538 16.5779 9.91168 15.0342 11.9959 15.0342C14.4093 15.0342 15.386 16.4551 17.1978 16.4551C18.8078 16.4551 20.6373 15.4833 20.6373 12.9327C20.6373 10.6522 17.3995 7.24902 11.8438 7.24902C3.32273 7.24552 0.11318 14.3606 0.00348159 18.3216C-0.130987 23.3071 3.64828 29.2433 8.11405 33.7657C10.1205 33.1026 12.0844 31.3519 13.7688 29.6608H13.7723Z" fill="#FF6631"/>
<path d="M34.3039 17.1808C36.8128 17.1843 37.8708 18.6227 38.1645 19.377C38.1787 19.4086 38.207 19.4261 38.2353 19.4261C38.2707 19.4261 38.3096 19.4016 38.3096 19.356C38.3804 17.7772 37.9664 12.083 31.9648 12.083C25.1282 12.083 23.0616 18.7946 19.0488 24.6572C15.1492 30.3549 10.1101 35.4211 6.55735 35.4211C3.97414 35.4211 3.04702 34.2563 2.73561 33.6388C2.72854 33.6247 2.71792 33.6177 2.70377 33.6177C2.68253 33.6177 2.6613 33.6353 2.66838 33.6633C2.96563 34.9825 4.27846 39.133 9.03794 39.133C22.4069 39.133 27.1664 17.1702 34.3039 17.1808Z" fill="#0EA8B3"/>
<path d="M12.9551 39.7181C15.372 41.4513 17.7783 42.8266 19.3777 42.8266C25.1634 42.8266 37.3682 30.6769 38.313 21.7374C38.2847 21.6182 37.577 18.6641 34.6965 18.6641C31.816 18.6641 29.2081 22.5374 26.2427 27.0246C22.8987 32.0768 18.7337 37.8376 12.9551 39.7181Z" fill="#FF6631"/>
<path d="M2.92663 32.4321C3.35481 33.7197 4.46948 34.1969 5.38599 34.2986C5.52754 34.3162 5.66554 34.3197 5.80001 34.3197C6.52543 34.3197 7.07392 34.1197 7.07392 34.1197C4.85165 31.9515 3.5742 29.8464 3.5742 29.8464C3.5742 29.8464 2.50907 31.1761 2.92663 32.4321Z" fill="#0EA8B3"/>
</svg>
