<svg width="101" height="32" viewBox="0 0 101 32" fill="none" xmlns="http://www.w3.org/2000/svg">
<path d="M6.11148 0.590827H12.7215C15.4986 0.590827 17.2892 2.22432 17.2892 4.78215C17.2892 8.14694 14.7291 10.47 11.0147 10.47H7.66038L6.98459 14.3679H3.66974L6.11148 0.585938V0.590827ZM11.5129 7.61875C12.8842 7.61875 14.0139 6.55747 14.0139 5.11961C14.0139 4.09745 13.2986 3.46655 12.2084 3.46655H8.85413L8.11914 7.61875H11.5129Z" fill="#3C3C3B"/>
<path d="M17.4272 9.42794C17.9648 6.41528 20.086 4.44922 22.8681 4.44922C24.2591 4.44922 25.3098 4.90405 25.9856 5.78927L26.3605 4.64974H29.1426L27.4161 14.3724H24.634V13.2916C23.7017 14.1181 22.5869 14.5729 21.3586 14.5729C18.6209 14.5729 16.8895 12.3868 17.4272 9.43283V9.42794ZM22.3896 11.9466C23.7806 11.9466 24.8905 10.9441 25.1717 9.48663C25.4529 8.0292 24.6735 7.04618 23.2874 7.04618C21.9012 7.04618 20.747 8.06833 20.4855 9.52576C20.2487 10.9832 21.0232 11.9466 22.3896 11.9466Z" fill="#3C3C3B"/>
<path d="M31.4119 4.64585H34.273L34.1151 5.9859C34.8501 4.96375 35.8021 4.43066 36.9761 4.43066C37.9676 4.43066 38.8605 4.78279 39.3784 5.41369L37.6717 7.75633C37.2326 7.36019 36.7196 7.16456 36.1622 7.16456C34.9093 7.16456 33.9573 8.10846 33.7007 9.60502L32.8474 14.3685H29.6904L31.4169 4.64585H31.4119Z" fill="#3C3C3B"/>
<path d="M38.9984 9.44851C39.5559 6.27934 41.8595 4.43066 45.1151 4.43066C48.7901 4.43066 50.4376 7.00806 49.2044 10.4364H42.0371C42.0765 11.439 42.9496 12.0895 44.3012 12.0895C45.2335 12.0895 46.23 11.7765 46.9995 11.2238L48.3511 13.0921C47.0981 14.1142 45.6528 14.6082 43.7635 14.6082C40.3698 14.6082 38.4608 12.5003 38.9984 9.44851ZM46.664 8.66111C46.8811 7.54114 46.2053 6.87112 44.8389 6.87112C43.586 6.87112 42.7129 7.52158 42.3182 8.66111H46.664Z" fill="#3C3C3B"/>
<path d="M52.0213 4.64574H54.7787V5.74615C55.7505 4.82181 56.964 4.42566 58.0936 4.42566C60.8313 4.42566 61.808 6.31347 61.3295 8.95444L60.3775 14.3684H57.2007L58.1528 9.05225C58.3501 7.88827 57.9357 7.04218 56.8012 7.04218C55.6666 7.04218 54.6159 7.82958 54.3594 9.26744L53.4469 14.3684H50.2899L52.0163 4.64574H52.0213Z" fill="#3C3C3B"/>
<path d="M64.0178 11.0815L64.7134 7.10532H63.0461L63.4802 4.64531H65.1475L65.5865 2.22441L68.7829 1.89185L68.2847 4.65019H70.687L70.248 7.11021H67.8457L67.2094 10.6755C67.0515 11.5021 67.308 11.8982 68.043 11.8982C68.4377 11.8982 68.8372 11.8004 69.2565 11.6243L69.5525 13.9865C68.7188 14.3778 67.8654 14.5783 66.874 14.5783C64.6295 14.5783 63.6183 13.3556 64.0129 11.0961L64.0178 11.0815Z" fill="#3C3C3B"/>
<path d="M72.5566 4.64565H75.7136L73.9871 14.3683H70.8301L72.5566 4.64565ZM74.8602 0.3125C75.9701 0.3125 76.6064 1.02165 76.4091 2.08293C76.2512 2.98771 75.3781 3.6773 74.362 3.6773C73.2521 3.6773 72.6158 2.96814 72.7933 1.92643C72.9315 1.00209 73.8243 0.3125 74.8602 0.3125Z" fill="#3C3C3B"/>
<path d="M77.9975 4.64574H80.7549V5.74615C81.7267 4.82181 82.9401 4.42566 84.0698 4.42566C86.8075 4.42566 87.7842 6.31347 87.3057 8.95444L86.3537 14.3684H83.1769L84.129 9.05225C84.3263 7.88827 83.9119 7.04218 82.7774 7.04218C81.6428 7.04218 80.5921 7.82958 80.3356 9.26744L79.4231 14.3684H76.2661L77.9925 4.64574H77.9975Z" fill="#3C3C3B"/>
<path d="M88.0062 17.8937L89.5156 15.6685C90.4479 16.2602 91.6416 16.6124 92.7318 16.6124C94.478 16.6124 95.5139 15.8054 95.7901 14.211L95.948 13.3649C95.0354 14.0741 93.9847 14.4458 92.8502 14.4458C90.1717 14.4458 88.3613 12.3575 88.8793 9.40838C89.3972 6.43484 91.5972 4.44922 94.3202 4.44922C95.6323 4.44922 96.7422 4.88449 97.4377 5.78927L97.8126 4.64974H100.595L98.8288 14.5534C98.2714 17.6443 96.2094 19.1995 92.5937 19.1995C90.808 19.1995 89.3183 18.7643 88.0062 17.8986V17.8937ZM93.8614 11.9075C95.3709 11.9075 96.5399 10.7435 96.6435 9.14918C96.7619 7.88738 95.9875 7.04128 94.7197 7.04128C93.3484 7.04128 92.2188 8.02432 91.9376 9.48174C91.6811 10.9587 92.4161 11.9026 93.8614 11.9026V11.9075Z" fill="#3C3C3B"/>
<path d="M2.91 17.8555H6.22486L4.30105 28.7226H11.1725L10.6545 31.6374H0.468262L2.91 17.8555Z" fill="#3C3C3B"/>
<path d="M12.2477 26.7132C12.8051 23.544 15.1087 21.6953 18.3643 21.6953C22.0393 21.6953 23.6869 24.2727 22.4536 27.7011H15.2863C15.3257 28.7037 16.1988 29.3541 17.5504 29.3541C18.4827 29.3541 19.4742 29.0411 20.2487 28.4885L21.6003 30.3567C20.3473 31.3789 18.902 31.8728 17.0128 31.8728C13.619 31.8728 11.71 29.765 12.2477 26.7132ZM19.9133 25.9258C20.1303 24.8058 19.4545 24.1358 18.0881 24.1358C16.8352 24.1358 15.9621 24.7862 15.5674 25.9258H19.9182H19.9133Z" fill="#3C3C3B"/>
<path d="M23.8844 26.6927C24.4221 23.68 26.5432 21.714 29.3253 21.714C30.7163 21.714 31.767 22.1688 32.4428 23.054L32.8177 21.9145H35.5998L33.8733 31.6372H31.0912V30.5564C30.1589 31.3829 29.0441 31.8377 27.8158 31.8377C25.0781 31.8377 23.3467 29.6516 23.8844 26.6976V26.6927ZM28.8468 29.2114C30.2379 29.2114 31.3477 28.2088 31.6289 26.7514C31.9101 25.294 31.1307 24.3109 29.7446 24.3109C28.3585 24.3109 27.2042 25.3331 26.9427 26.7905C26.706 28.248 27.4804 29.2114 28.8468 29.2114Z" fill="#3C3C3B"/>
<path d="M36.473 26.6929C37.0106 23.6803 39.1515 21.7142 41.9731 21.7142C43.2655 21.7142 44.257 22.125 44.8538 22.8782L45.7269 17.8604H48.9037L46.4619 31.6423H43.6798V30.5615C42.7475 31.388 41.6327 31.8428 40.4044 31.8428C37.6864 31.8428 35.9353 29.6958 36.473 26.7027V26.6929ZM41.4354 29.2116C42.8264 29.2116 43.9363 28.2091 44.2175 26.7516C44.4987 25.2942 43.6995 24.3112 42.3332 24.3112C40.9668 24.3112 39.7927 25.3333 39.5313 26.7908C39.2945 28.2482 40.069 29.2116 41.4354 29.2116Z" fill="#3C3C3B"/>
<path d="M49.0611 26.7132C49.6185 23.544 51.9222 21.6953 55.1778 21.6953C58.8528 21.6953 60.5003 24.2727 59.2671 27.7011H52.0997C52.1392 28.7037 53.0123 29.3541 54.3639 29.3541C55.2962 29.3541 56.2926 29.0411 57.0622 28.4885L58.4137 30.3567C57.1608 31.3789 55.7155 31.8728 53.8262 31.8728C50.4325 31.8728 48.5235 29.765 49.0611 26.7132ZM56.7267 25.9258C56.9438 24.8058 56.268 24.1358 54.9016 24.1358C53.6486 24.1358 52.7755 24.7862 52.3809 25.9258H56.7267Z" fill="#3C3C3B"/>
<path d="M62.0887 21.9105H64.9498L64.7919 23.2506C65.5269 22.2284 66.4789 21.6953 67.6529 21.6953C68.6444 21.6953 69.5373 22.0474 70.0552 22.6783L68.3485 25.021C67.9095 24.6297 67.3964 24.4292 66.839 24.4292C65.5861 24.4292 64.6341 25.3731 64.3776 26.8697L63.5242 31.6332H60.3672L62.0937 21.9105H62.0887Z" fill="#3C3C3B"/>
</svg>
