<svg width="32" height="26" viewBox="0 0 32 26" fill="none" xmlns="http://www.w3.org/2000/svg">
<path fill-rule="evenodd" clip-rule="evenodd" d="M9.03947 22.5143V23.7997V25.0851H8.46857V24.773C8.28749 25.0044 8.01273 25.1497 7.63926 25.1497C6.903 25.1497 6.32581 24.5852 6.32581 23.7997C6.32581 23.0148 6.903 22.4496 7.63926 22.4496C8.01273 22.4496 8.28749 22.5949 8.46857 22.8264V22.5143H9.03947ZM7.71029 22.9766C7.21609 22.9766 6.91367 23.3478 6.91367 23.7997C6.91367 24.2515 7.21609 24.6228 7.71029 24.6228C8.18247 24.6228 8.50125 24.2676 8.50125 23.7997C8.50125 23.3318 8.18247 22.9766 7.71029 22.9766ZM28.3319 23.7997C28.3319 23.3478 28.6343 22.9766 29.1285 22.9766C29.6013 22.9766 29.9195 23.3318 29.9195 23.7997C29.9195 24.2676 29.6013 24.6228 29.1285 24.6228C28.6343 24.6228 28.3319 24.2515 28.3319 23.7997ZM30.4583 21.4819V23.7997V25.0851H29.8868V24.773C29.7057 25.0044 29.431 25.1497 29.0575 25.1497C28.3212 25.1497 27.744 24.5852 27.744 23.7997C27.744 23.0148 28.3212 22.4496 29.0575 22.4496C29.431 22.4496 29.7057 22.5949 29.8868 22.8264V21.4819H30.4583ZM16.1261 22.9501C16.4939 22.9501 16.7303 23.1761 16.7906 23.5738H15.4282C15.4891 23.2025 15.7193 22.9501 16.1261 22.9501ZM14.8296 23.7997C14.8296 22.9982 15.3678 22.4496 16.1374 22.4496C16.873 22.4496 17.3785 22.9982 17.3842 23.7997C17.3842 23.8748 17.3785 23.945 17.3729 24.0145L15.4231 24.0145C15.5055 24.4775 15.8406 24.6443 16.2084 24.6443C16.4719 24.6443 16.7523 24.547 16.9723 24.3753L17.2521 24.7896C16.9334 25.0531 16.5712 25.1497 16.1757 25.1497C15.3898 25.1497 14.8296 24.6172 14.8296 23.7997ZM23.031 23.7997C23.031 23.3478 23.3334 22.9766 23.8276 22.9766C24.2998 22.9766 24.6185 23.3318 24.6185 23.7997C24.6185 24.2676 24.2998 24.6228 23.8276 24.6228C23.3334 24.6228 23.031 24.2515 23.031 23.7997ZM25.1568 22.5143V23.7997V25.0851H24.5859V24.773C24.4041 25.0044 24.13 25.1497 23.7565 25.1497C23.0203 25.1497 22.4431 24.5852 22.4431 23.7997C22.4431 23.0148 23.0203 22.4496 23.7565 22.4496C24.13 22.4496 24.4041 22.5949 24.5859 22.8264V22.5143H25.1568ZM19.8067 23.7997C19.8067 24.5797 20.3613 25.1497 21.2076 25.1497C21.603 25.1497 21.8665 25.0635 22.1519 24.8432L21.8778 24.3913C21.6634 24.5421 21.4383 24.6228 21.1906 24.6228C20.7347 24.6172 20.3996 24.2946 20.3996 23.7997C20.3996 23.3047 20.7347 22.9821 21.1906 22.9766C21.4383 22.9766 21.6634 23.0573 21.8778 23.2081L22.1519 22.7562C21.8665 22.5358 21.603 22.4496 21.2076 22.4496C20.3613 22.4496 19.8067 23.0197 19.8067 23.7997ZM26.4751 22.8264C26.6235 22.6005 26.8379 22.4497 27.1674 22.4497C27.2831 22.4497 27.4478 22.4712 27.5742 22.5198L27.3981 23.0468C27.2774 22.9982 27.1567 22.9822 27.041 22.9822C26.6675 22.9822 26.4808 23.2186 26.4808 23.6439V25.0851H25.9093V22.5143H26.4751V22.8264ZM11.8631 22.7187C11.5884 22.5414 11.2099 22.4496 10.7924 22.4496C10.1272 22.4496 9.69898 22.7618 9.69898 23.2727C9.69898 23.692 10.0178 23.9505 10.605 24.0312L10.8747 24.0687C11.1878 24.1118 11.3356 24.1925 11.3356 24.3377C11.3356 24.5366 11.1269 24.6499 10.737 24.6499C10.3416 24.6499 10.0561 24.5261 9.86371 24.3808L9.59461 24.8161C9.90772 25.042 10.3032 25.1497 10.7314 25.1497C11.4896 25.1497 11.9291 24.8001 11.9291 24.3106C11.9291 23.8588 11.5833 23.6224 11.0118 23.5417L10.7427 23.5036C10.4956 23.4716 10.2975 23.4235 10.2975 23.2512C10.2975 23.0628 10.4843 22.9501 10.7974 22.9501C11.1325 22.9501 11.457 23.0739 11.616 23.1705L11.8631 22.7187ZM18.5379 22.8264C18.6857 22.6005 18.9001 22.4497 19.2296 22.4497C19.3452 22.4497 19.51 22.4712 19.6363 22.5198L19.4603 23.0468C19.3396 22.9982 19.2189 22.9822 19.1032 22.9822C18.7297 22.9822 18.543 23.2186 18.543 23.6439V25.0851H17.9721V22.5143L18.5379 22.5143V22.8264ZM14.3573 22.5143H13.4236V21.7343H12.8464V22.5143H12.3139V23.0252H12.8464V24.198C12.8464 24.7945 13.0828 25.1497 13.7581 25.1497C14.0058 25.1497 14.2913 25.0746 14.4724 24.9509L14.3076 24.4719C14.1372 24.5686 13.9505 24.6172 13.8021 24.6172C13.5167 24.6172 13.4236 24.4449 13.4236 24.1869V23.0252H14.3573V22.5143ZM5.82089 23.4716V25.0851H5.2437V23.6544C5.2437 23.2186 5.05696 22.9766 4.66714 22.9766C4.28801 22.9766 4.02456 23.2136 4.02456 23.66V25.0851H3.44737V23.6544C3.44737 23.2186 3.25561 22.9766 2.87647 22.9766C2.48602 22.9766 2.23327 23.2136 2.23327 23.66V25.0851H1.65671L1.65671 22.5143H2.22824V22.8313C2.44264 22.5303 2.71677 22.4496 2.99719 22.4496C3.39833 22.4496 3.68378 22.622 3.86486 22.9071C4.10693 22.5463 4.45274 22.4441 4.78786 22.4496C5.42541 22.4552 5.82089 22.864 5.82089 23.4716Z" fill="#231F20"/>
<path d="M20.3267 18.1459H11.6739V2.92051H20.3267V18.1459Z" fill="#FF5F00"/>
<path d="M12.2228 10.5335C12.2228 7.44499 13.6997 4.6938 15.9997 2.92083C14.3178 1.62434 12.1951 0.850512 9.88828 0.850512C4.427 0.850512 0 5.18568 0 10.5335C0 15.8814 4.427 20.2166 9.88828 20.2166C12.1951 20.2166 14.3178 19.4427 15.9997 18.1462C13.6997 16.3733 12.2228 13.6221 12.2228 10.5335Z" fill="#EB001B"/>
<path d="M32 10.5335C32 15.8814 27.573 20.2166 22.1117 20.2166C19.8049 20.2166 17.6822 19.4427 15.9997 18.1462C18.3003 16.3733 19.7772 13.6221 19.7772 10.5335C19.7772 7.44499 18.3003 4.6938 15.9997 2.92083C17.6822 1.62434 19.8049 0.850512 22.1117 0.850512C27.573 0.850512 32 5.18568 32 10.5335Z" fill="#F79E1B"/>
</svg>
