<svg width="91" height="105" viewBox="0 0 91 105" fill="none" xmlns="http://www.w3.org/2000/svg">
<path d="M1.38874 13.6164C-0.340764 19.3444 -0.139656 25.4516 0.322886 31.3992C0.865871 38.684 1.75073 45.9488 2.97748 53.1537C3.983 59.0614 5.22986 65.0289 8.10566 70.2979C10.7804 75.1877 14.722 79.2591 18.905 82.9714C24.9181 88.3202 31.4942 93.0503 38.4726 97.0819C50.3579 103.928 65.7223 108.538 77.4669 101.453C86.4764 96.0241 90.6996 84.9672 90.9812 74.4891C91.3432 61.3167 86.4563 48.3238 78.754 37.6062C71.0315 26.8886 60.6143 18.3066 49.3725 11.3012C34.9935 2.33995 8.50787 -9.9344 1.38874 13.6363V13.6164Z" fill="#F5A418"/>
</svg>
