<svg width="74" height="74" viewBox="0 0 74 74" fill="none" xmlns="http://www.w3.org/2000/svg">
<path d="M6.12586 25.7047C4.15041 28.3204 2.33622 31.1146 1.27458 34.2383C0.259974 37.2179 -0.0423911 40.4171 0.00464348 43.5752C0.165905 53.8319 4.56029 64.535 13.2079 69.7389C18.9193 73.1716 25.7863 73.8993 32.4115 73.9885C39.8497 74.0915 47.3013 73.5011 54.6387 72.2241C60.0141 71.2905 65.6918 69.7663 69.2732 65.5648C72.3304 61.9811 73.3182 57.0449 73.728 52.3078C74.998 37.8014 71.7929 22.9243 64.6907 10.299C63.4611 8.10891 62.097 5.96007 60.2694 4.26433C51.8905 -3.5278 40.1991 0.94152 31.323 5.18429C21.5062 9.8733 12.7577 16.9377 6.12586 25.7047Z" fill="#F28381"/>
</svg>
