<svg width="46" height="46" viewBox="0 0 46 46" fill="none" xmlns="http://www.w3.org/2000/svg">
<path d="M34.54 42.0901L26.7 33.3401L26.74 45.0801L22.6 34.0901L18.39 45.0601L18.49 33.3201L10.61 42.0201L14.95 31.1101L4.45 36.3801L12.44 27.7701L0.75 28.8901L11.31 23.7501L0 20.5701L11.7 19.5901L2.31 12.5401L13.58 15.8601L7.36 5.89012L16.67 13.0501L14.47 1.51012L20.57 11.5501L22.69 0.00012207L24.75 11.5601L30.9 1.56012L28.64 13.0801L37.99 5.97012L31.72 15.9101L43 12.6501L33.57 19.6501L45.27 20.6901L33.94 23.8101L44.47 29.0101L32.79 27.8201L40.73 36.4801L30.26 31.1501L34.54 42.0901Z" fill="#00BBB6"/>
</svg>
