<svg width="111" height="18" viewBox="0 0 111 18" fill="none" xmlns="http://www.w3.org/2000/svg">
<path d="M13.2471 10.9564C13.0316 11.1751 12.9325 11.4915 12.9816 11.8018L13.7214 16.0898C13.7838 16.4532 13.6374 16.821 13.347 17.0311C13.0624 17.2489 12.6837 17.2751 12.3733 17.1008L8.68768 15.0875C8.55953 15.016 8.41723 14.9777 8.2716 14.9733H8.04608C7.96786 14.9855 7.8913 15.0117 7.8214 15.0518L4.13492 17.0746C3.95267 17.1705 3.7463 17.2045 3.54408 17.1705C3.05144 17.0729 2.72273 16.5813 2.80345 16.0628L3.54408 11.7747C3.59318 11.4619 3.49415 11.1437 3.27862 10.9215L0.273678 7.87107C0.0223651 7.6157 -0.0650121 7.23222 0.0498264 6.88622C0.161336 6.54108 0.445936 6.2892 0.789619 6.23255L4.92547 5.60417C5.24003 5.57017 5.51631 5.36972 5.65777 5.07339L7.48021 1.16013C7.52348 1.07298 7.57924 0.992794 7.64664 0.924813L7.72154 0.863805C7.76065 0.818484 7.80559 0.781007 7.85552 0.750503L7.94622 0.715641L8.08769 0.654633H8.43803C8.75092 0.688623 9.02637 0.884722 9.17033 1.17756L11.0169 5.07339C11.1501 5.35839 11.4089 5.55623 11.7076 5.60417L15.8435 6.23255C16.193 6.28485 16.485 6.5376 16.6007 6.88622C16.7097 7.23571 16.6157 7.61919 16.3594 7.87107L13.2471 10.9564Z" fill="#FBB13C"/>
<path d="M61.7514 10.9564C61.5205 11.1751 61.4144 11.4915 61.467 11.8018L62.2596 16.0898C62.3265 16.4532 62.1696 16.821 61.8584 17.0311C61.5535 17.2489 61.1478 17.2751 60.8152 17.1008L56.8663 15.0875C56.729 15.016 56.5766 14.9777 56.4205 14.9733H56.1789C56.0951 14.9855 56.0131 15.0117 55.9382 15.0518L51.9884 17.0746C51.7931 17.1705 51.572 17.2045 51.3553 17.1705C50.8275 17.0729 50.4753 16.5813 50.5618 16.0628L51.3553 11.7747C51.4079 11.4619 51.3018 11.1437 51.0709 10.9215L47.8513 7.87107C47.5821 7.6157 47.4884 7.23222 47.6115 6.88622C47.731 6.54108 48.0359 6.2892 48.4041 6.23255L52.8354 5.60417C53.1724 5.57017 53.4684 5.36972 53.62 5.07339L55.5726 1.16013C55.619 1.07298 55.6787 0.992794 55.7509 0.924813L55.8312 0.863805C55.8731 0.818484 55.9212 0.781007 55.9747 0.750503L56.0719 0.715641L56.2235 0.654633H56.5989C56.9341 0.688623 57.2292 0.884722 57.3835 1.17756L59.3619 5.07339C59.5046 5.35839 59.7819 5.55623 60.102 5.60417L64.5332 6.23255C64.9077 6.28485 65.2207 6.5376 65.3446 6.88622C65.4614 7.23571 65.3606 7.61919 65.086 7.87107L61.7514 10.9564Z" fill="#FBB13C"/>
<path d="M35.8371 10.9564C35.6216 11.1751 35.5225 11.4915 35.5716 11.8018L36.3114 16.0898C36.3738 16.4532 36.2274 16.821 35.937 17.0311C35.6524 17.2489 35.2737 17.2751 34.9633 17.1008L31.2777 15.0875C31.1495 15.016 31.0072 14.9777 30.8616 14.9733H30.6361C30.5579 14.9855 30.4813 15.0117 30.4114 15.0518L26.7249 17.0746C26.5427 17.1705 26.3363 17.2045 26.1341 17.1705C25.6414 17.0729 25.3127 16.5813 25.3934 16.0628L26.1341 11.7747C26.1832 11.4619 26.0841 11.1437 25.8686 10.9215L22.8637 7.87107C22.6124 7.6157 22.525 7.23222 22.6398 6.88622C22.7513 6.54108 23.0359 6.2892 23.3796 6.23255L27.5155 5.60417C27.83 5.57017 28.1063 5.36972 28.2478 5.07339L30.0702 1.16013C30.1135 1.07298 30.1692 0.992794 30.2366 0.924813L30.3115 0.863805C30.3506 0.818484 30.3956 0.781007 30.4455 0.750503L30.5362 0.715641L30.6777 0.654633H31.028C31.3409 0.688623 31.6164 0.884722 31.7603 1.17756L33.6069 5.07339C33.74 5.35839 33.9988 5.55623 34.2976 5.60417L38.4334 6.23255C38.783 6.28485 39.075 6.5376 39.1907 6.88622C39.2997 7.23571 39.2057 7.61919 38.9494 7.87107L35.8371 10.9564Z" fill="#FBB13C"/>
<path d="M84.3415 10.9564C84.1105 11.1751 84.0044 11.4915 84.057 11.8018L84.8497 16.0898C84.9165 16.4532 84.7596 16.821 84.4484 17.0311C84.1435 17.2489 83.7378 17.2751 83.4053 17.1008L79.4564 15.0875C79.3191 15.016 79.1666 14.9777 79.0106 14.9733H78.7689C78.6851 14.9855 78.6031 15.0117 78.5282 15.0518L74.5784 17.0746C74.3831 17.1705 74.162 17.2045 73.9454 17.1705C73.4175 17.0729 73.0653 16.5813 73.1518 16.0628L73.9454 11.7747C73.998 11.4619 73.8919 11.1437 73.6609 10.9215L70.4414 7.87107C70.1721 7.6157 70.0785 7.23222 70.2015 6.88622C70.321 6.54108 70.6259 6.2892 70.9942 6.23255L75.4254 5.60417C75.7624 5.57017 76.0585 5.36972 76.21 5.07339L78.1626 1.16013C78.209 1.07298 78.2687 0.992794 78.341 0.924813L78.4212 0.863805C78.4631 0.818484 78.5113 0.781007 78.5648 0.750503L78.6619 0.715641L78.8135 0.654633H79.1889C79.5241 0.688623 79.8192 0.884722 79.9735 1.17756L81.952 5.07339C82.0946 5.35839 82.3719 5.55623 82.692 5.60417L87.1233 6.23255C87.4977 6.28485 87.8107 6.5376 87.9346 6.88622C88.0514 7.23571 87.9507 7.61919 87.6761 7.87107L84.3415 10.9564Z" fill="#FBB13C"/>
<path d="M107.373 10.8015C107.158 11.0203 107.059 11.3367 107.108 11.6469L107.848 15.9349C107.91 16.2983 107.764 16.6661 107.473 16.8761C107.188 17.094 106.81 17.1202 106.499 16.9459L102.814 14.9326C102.686 14.8611 102.543 14.8228 102.398 14.8184H102.172C102.094 14.8306 102.017 14.8568 101.948 14.8969L98.261 16.9197C98.0788 17.0156 97.8724 17.0496 97.6702 17.0156C97.1776 16.918 96.8489 16.4264 96.9296 15.9079L97.6702 11.6199C97.7193 11.307 97.6203 10.9889 97.4047 10.7667L94.3998 7.7163C94.1485 7.46094 94.0611 7.07747 94.176 6.73147C94.2875 6.38634 94.5721 6.13447 94.9157 6.07782L99.0516 5.44944C99.3662 5.41545 99.6424 5.215 99.7839 4.91868L101.606 1.00549C101.65 0.918336 101.705 0.838155 101.773 0.770176L101.848 0.709168C101.887 0.663848 101.932 0.626372 101.982 0.595869L102.072 0.561007L102.214 0.5H102.564C102.877 0.53399 103.152 0.730085 103.296 1.02292L105.143 4.91868C105.276 5.20367 105.535 5.40151 105.834 5.44944L109.97 6.07782C110.319 6.13011 110.611 6.38286 110.727 6.73147C110.836 7.08095 110.742 7.46443 110.486 7.7163L107.373 10.8015Z" fill="#FBB13C"/>
</svg>
