<svg width="45" height="16" viewBox="0 0 45 16" fill="none" xmlns="http://www.w3.org/2000/svg">
<path fill-rule="evenodd" clip-rule="evenodd" d="M11.2505 15.1726H7.356L4.43563 3.86814C4.29702 3.34814 4.0027 2.88842 3.56977 2.67175C2.48934 2.12726 1.29879 1.69392 0 1.47537V1.04014H6.27368C7.13954 1.04014 7.78893 1.69392 7.89717 2.4532L9.41242 10.6075L13.305 1.04014H17.0912L11.2505 15.1726ZM19.2559 15.1726H15.5779L18.6065 1.04014H22.2845L19.2559 15.1726ZM27.0429 4.95523C27.1511 4.19407 27.8005 3.75885 28.5582 3.75885C29.7487 3.64957 31.0456 3.86812 32.1279 4.41074L32.7773 1.36795C31.695 0.932733 30.5044 0.71418 29.424 0.71418C25.8542 0.71418 23.2567 2.67173 23.2567 5.38857C23.2567 7.4554 25.0966 8.54063 26.3954 9.1944C27.8005 9.84629 28.3417 10.2815 28.2335 10.9334C28.2335 11.9112 27.1511 12.3465 26.0707 12.3465C24.7719 12.3465 23.4731 12.0205 22.2845 11.476L21.6351 14.5207C22.9339 15.0633 24.339 15.2818 25.6378 15.2818C29.6405 15.3892 32.1279 13.4336 32.1279 10.4982C32.1279 6.80163 27.0429 6.58496 27.0429 4.95523ZM45 15.1726L42.0796 1.04014H38.9428C38.2934 1.04014 37.644 1.47537 37.4275 2.12726L32.0197 15.1726H35.8059L36.5617 13.1076H41.2138L41.6467 15.1726H45ZM39.484 4.84601L40.5644 10.1723H37.5358L39.484 4.84601Z" fill="#1A1F71"/>
</svg>
