<svg width="24" height="16" viewBox="0 0 24 16" fill="none" xmlns="http://www.w3.org/2000/svg">
<g clip-path="url(#clip0_1_697)">
<path d="M22.9991 2.49556C22.8671 2.0132 22.6098 1.57346 22.2527 1.22011C21.8955 0.866766 21.4511 0.612143 20.9636 0.4816C19.1787 0 11.9954 0 11.9954 0C11.9954 0 4.81163 0.0145777 3.02679 0.496178C2.53926 0.626729 2.09479 0.881365 1.73767 1.23473C1.38054 1.58809 1.1232 2.02786 0.991294 2.51022C0.451423 5.64782 0.241997 10.4288 1.00612 13.4409C1.13804 13.9232 1.39538 14.363 1.75251 14.7163C2.10964 15.0697 2.55409 15.3243 3.04162 15.4548C4.82645 15.9364 12.01 15.9364 12.01 15.9364C12.01 15.9364 19.1935 15.9364 20.9782 15.4548C21.4657 15.3243 21.9102 15.0697 22.2674 14.7163C22.6245 14.363 22.8819 13.9233 23.0138 13.4409C23.5832 10.2988 23.7587 5.5208 22.9991 2.49556Z" fill="#FF0000"/>
<path d="M9.70891 11.3831L15.6681 7.96816L9.70891 4.55322V11.3831Z" fill="white"/>
</g>
<defs>
<clipPath id="clip0_1_697">
<rect width="23" height="16" fill="white" transform="translate(0.507019)"/>
</clipPath>
</defs>
</svg>
